<svg width="100" height="129" viewBox="0 0 100 129" fill="none" xmlns="http://www.w3.org/2000/svg">
<path d="M33.3013 94.073H34.9985C34.8965 94.895 34.3755 95.657 33.1831 95.657C31.7437 95.657 31.2173 94.535 31.2173 93.165C31.2173 91.774 31.7705 90.678 33.21 90.678C34.166 90.678 34.8696 91.151 34.8911 92.042H36.583C36.5562 90.189 34.9932 89.292 33.1938 89.292C30.8521 89.292 29.5308 90.802 29.5308 93.224C29.5308 95.609 30.8091 97.107 32.9521 97.107C33.9404 97.107 34.7676 96.742 35.1973 96.071L35.2026 97H36.583V92.762H33.3013V94.073Z" fill="black"/>
<path d="M38.1138 97H39.7788V89.411H38.1138V97Z" fill="black"/>
<path d="M43.0713 97H44.7363V90.812H47.0137V89.411H40.8047V90.812H43.0713V97Z" fill="black"/>
<path d="M48.0396 97H49.7046V93.896H53.0562V97H54.7212V89.411H53.0562V92.499H49.7046V89.411H48.0396V97Z" fill="black"/>
<path d="M59.3296 97.107C61.3975 97.107 62.4019 95.979 62.4019 94.073V89.411H60.7368V94.18C60.7368 95.072 60.2158 95.593 59.3296 95.593C58.4541 95.593 57.9546 95.072 57.9546 94.18V89.411H56.2896V94.126C56.2896 95.99 57.2778 97.107 59.3296 97.107Z" fill="black"/>
<path d="M63.9595 97H67.9609C69.5938 97 70.5122 96.184 70.5122 94.895C70.5122 93.788 69.8408 93.192 69.0674 93.047V93.009C69.5991 92.8 70.1201 92.327 70.1201 91.419C70.1201 90.2 69.207 89.411 67.6494 89.411H63.9595V97ZM65.6245 92.488V90.823H67.4561C68.1328 90.823 68.4229 91.092 68.4229 91.624C68.4229 92.166 68.1328 92.488 67.4185 92.488H65.6245ZM65.6245 95.582V93.772H67.7944C68.4551 93.772 68.8364 94.094 68.8364 94.685C68.8364 95.201 68.5464 95.582 67.7944 95.582H65.6245Z" fill="black"/>
<path d="M50 25C36.1872 25 25 36.3578 25 50.3813C25 62.3094 33.0617 72.2091 43.9383 75C43.8128 74.6825 43.7511 74.2375 43.7511 73.7947V69.4788H40.6255C38.9383 69.4788 37.3745 68.7184 36.6872 67.3208C35.8745 65.7979 35.7489 63.4499 33.6872 61.9897C33.0617 61.4821 33.5617 60.9744 34.2489 61.0371C35.5617 61.4172 36.6234 62.3072 37.6234 63.6378C38.6234 64.9706 39.0617 65.2882 40.9362 65.2882C41.8106 65.2882 43.1851 65.2255 44.4362 65.0333C45.1234 63.2555 46.3106 61.67 47.7489 60.9096C39.3745 59.8944 35.3745 55.7059 35.3745 49.9946C35.3745 47.5191 36.4362 45.1711 38.1872 43.1406C37.6255 41.1727 36.8745 37.1117 38.4383 35.5262C42.1894 35.5262 44.4383 38.0017 45 38.6346C46.8745 37.9995 48.9383 37.6193 51.0617 37.6193C53.2489 37.6193 55.2489 37.9995 57.1234 38.6346C57.6851 37.9995 59.9362 35.5262 63.6851 35.5262C65.1851 37.0491 64.4979 41.1727 63.8723 43.1406C65.6234 45.1084 66.6234 47.5191 66.6234 49.9946C66.6234 55.7059 62.6851 59.8944 54.3745 60.7822C56.6872 61.9875 58.3128 65.4134 58.3128 67.9516V73.732C58.3128 73.9221 58.2511 74.1122 58.2511 74.3023C68 70.8764 75 61.4864 75 50.3813C75 36.3578 63.8128 25 50 25Z" fill="#DCDCDC"/>
</svg>
