<svg width="41" height="74" viewBox="0 0 41 74" fill="none" xmlns="http://www.w3.org/2000/svg">
<path class="letter" d="M0.4062 73H2.0713V69.896H5.4229V73H7.0879V65.411H5.4229V68.499H2.0713V65.411H0.4062V73Z" fill="black"/>
<path class="letter" d="M10.3804 73H12.0454V66.812H14.3228V65.411H8.1138V66.812H10.3804V73Z" fill="black"/>
<path class="letter" d="M15.3486 73H17.0137V67.076H17.0674L19.0225 73H20.5371L22.5029 67.076H22.5513V73H24.2109V65.411H21.6489L19.7852 71.045L17.916 65.411H15.3486V73Z" fill="black"/>
<path class="letter" d="M25.9404 73H31.1826V71.582H27.6055V65.411H25.9404V73Z" fill="black"/>
<path class="letter" d="M37.7354 67.79C37.1016 67.79 36.543 68.021 36.1455 68.386L36.1079 68.37L36.3818 66.812H39.7173V65.411H35.2593L34.4805 69.691H36.0972C36.3228 69.315 36.7041 69.063 37.1821 69.063C37.8374 69.063 38.3584 69.53 38.3584 70.363C38.3584 71.115 37.9341 71.652 37.1553 71.652C36.6074 71.652 36.1401 71.378 36.0488 70.685H34.4053C34.4482 72.468 35.8608 73.107 37.1445 73.107C38.8794 73.107 40.0503 71.947 40.0503 70.314C40.0503 68.821 39.0728 67.79 37.7354 67.79Z" fill="black"/>
<path d="M6.7963 0H4.4425V7.0122H6.7964V4.6641H8.9497V7.0122H11.3037V0H8.9496V2.3156H6.7963V0Z" fill="#FF5C00"/>
<path d="M12.327 2.3254H14.399L14.3995 7.0122H16.7534V2.3254H18.8267V0H12.327V2.3254Z" fill="#FF5C00"/>
<path d="M22.3126 0H19.8582V7.0122H22.1613V3.5366L23.7818 6.0298H23.8224L25.4419 3.5366V7.0122H27.7862V0H25.3308L23.8224 2.4639L22.3126 0Z" fill="#FF5C00"/>
<path d="M31.3123 0H28.9577L28.9575 7.0122H34.6226V4.6944H31.3123V0Z" fill="#FF5C00"/>
<path fill-rule="evenodd" clip-rule="evenodd" d="M38 10.2193L34.6292 47.8176L19.4774 52L4.3673 47.8234L1 10.2193H38ZM13.3706 27.2407L12.9472 22.518H30.6723L31.087 17.906H7.885L9.1344 31.8527H25.1877L24.6499 37.8341L19.4837 39.2225L19.4796 39.2239L14.321 37.837L13.9912 34.1588H9.3413L9.9902 41.4003L19.4786 44.0228L19.4999 44.017V44.0161L28.9796 41.4003L30.1379 28.4792L30.2509 27.2407H13.3706Z" fill="#FF5C00"/>
</svg>
