<svg width="50" height="76" viewBox="0 0 50 76" fill="none" xmlns="http://www.w3.org/2000/svg">
<path class="letter" d="M3.1611 75H4.8262V69.865H4.8853L8.1025 75H9.8804V67.411H8.2153V72.567H8.167L4.9175 67.411H3.1611V75Z" fill="black"/>
<path class="letter" d="M14.7466 75.107C16.9648 75.107 18.3667 73.738 18.3667 71.203C18.3667 68.673 16.9648 67.298 14.7466 67.298C12.5176 67.298 11.1533 68.673 11.1533 71.203C11.1533 73.738 12.5176 75.107 14.7466 75.107ZM14.7466 73.689C13.4468 73.689 12.8076 72.728 12.8076 71.203C12.8076 69.683 13.4468 68.721 14.7466 68.721C16.0356 68.721 16.7124 69.683 16.7124 71.203C16.7124 72.728 16.0356 73.689 14.7466 73.689Z" fill="black"/>
<path class="letter" d="M19.6396 75H22.5508C25.1772 75 26.3643 73.63 26.3643 71.235C26.3643 68.834 25.231 67.411 22.5615 67.411H19.6396V75ZM21.3047 73.577V68.829H22.54C24.1567 68.829 24.7153 69.693 24.7153 71.181C24.7153 72.728 24.1084 73.577 22.4165 73.577H21.3047Z" fill="black"/>
<path class="letter" d="M27.6318 75H33.4702V73.593H29.2969V71.901H32.9277V70.494H29.2969V68.818H33.2124V67.411H27.6318V75Z" fill="black"/>
<path class="letter" d="M36.6821 75H37.7939C39.3569 75 40.2109 74.361 40.2109 72.835V67.411H38.5459V72.508C38.5459 73.362 38.2129 73.593 37.4395 73.593H36.6821V75Z" fill="black"/>
<path class="letter" d="M44.4004 75.086C46.3179 75.086 47.333 74.092 47.333 72.653C47.333 70.95 45.915 70.623 44.7227 70.359C43.8579 70.161 43.1113 69.994 43.1113 69.35C43.1113 68.834 43.5195 68.522 44.2124 68.522C44.9321 68.522 45.4263 68.872 45.4424 69.624H47.0322C47.0161 67.765 45.3887 67.298 44.1909 67.298C42.5957 67.298 41.4839 68.109 41.4839 69.575C41.4839 71.079 42.7246 71.423 43.8472 71.691C44.7871 71.912 45.6572 72.089 45.6572 72.868C45.6572 73.448 45.1953 73.77 44.4487 73.77C43.6484 73.77 43.0254 73.394 42.9932 72.438H41.355C41.355 74.522 42.9502 75.086 44.4004 75.086Z" fill="black"/>
<path d="M27.2548 0.597398C25.8898 -0.200902 24.1103 -0.197402 22.7441 0.597398C21.0601 1.5639 19.3762 2.5304 17.6923 3.497C12.5338 6.4579 7.3751 9.4188 2.2157 12.3781C0.884001 13.1067 -0.0141988 14.594 0.000201168 16.1377V39.8656C-0.00939883 41.4394 0.935001 42.941 2.3011 43.6596C3.0426 44.0699 3.7763 44.496 4.5099 44.922C5.7208 45.6252 6.9315 46.3283 8.1778 46.9604C10.4894 48.1418 13.3816 48.403 15.7215 47.1711C17.6209 46.1499 18.4645 43.879 18.4622 41.792C18.4718 36.8461 18.4702 31.9001 18.4686 26.9541C18.4677 24.0691 18.4668 21.1842 18.4681 18.2993C18.5132 17.9512 18.262 17.5793 17.897 17.5876C17.0226 17.5733 16.147 17.5793 15.2725 17.5853C14.9421 17.5527 14.6196 17.8381 14.6446 18.1836C14.6384 22.2589 14.6393 26.3349 14.6403 30.4111C14.6411 34.1168 14.642 37.8227 14.6375 41.5283C14.6565 42.6047 13.9573 43.6393 12.9599 44.0029C11.8295 44.4329 10.5699 44.0994 9.544 43.5382C8.9277 43.1844 8.3112 42.8311 7.6948 42.4777C6.4897 41.7871 5.2847 41.0964 4.0807 40.4025C3.9601 40.3443 3.8598 40.25 3.7935 40.1323C3.7272 40.0145 3.698 39.8789 3.7098 39.7437C3.7098 37.1342 3.71 34.5246 3.7101 31.9151C3.7104 26.6962 3.7106 21.4775 3.7098 16.2593C3.6767 15.9438 3.8637 15.6596 4.1423 15.5308C7.937 13.3585 11.7307 11.1832 15.5244 9.0079C18.5487 7.2737 21.5732 5.5395 24.5983 3.8067C24.7167 3.7245 24.8568 3.6806 25.0002 3.6809C25.1436 3.6811 25.2835 3.7254 25.4017 3.8079C28.4136 5.5326 31.4251 7.2582 34.4366 8.9839C38.244 11.1657 42.0515 13.3474 45.86 15.5274C46.1397 15.656 46.3186 15.945 46.2902 16.2593C46.2898 19.1067 46.29 21.9542 46.2901 24.8017C46.2905 29.7821 46.2908 34.7626 46.2878 39.7425C46.308 40.0195 46.1705 40.288 45.9216 40.4096C42.4085 42.4287 38.8928 44.4433 35.377 46.4581C32.1721 48.2946 28.9672 50.1312 25.7642 51.9711C25.7229 51.9945 25.6806 52.0198 25.6374 52.0455C25.3453 52.2198 25.0145 52.4173 24.6872 52.2252C23.6787 51.6451 22.6773 51.052 21.6759 50.459C20.929 50.0167 20.1822 49.5744 19.4326 49.1376C19.2418 49.0137 18.9989 48.9607 18.7999 49.0991C18.7522 49.1252 18.7046 49.1514 18.6569 49.1776C17.9174 49.5835 17.1744 49.9914 16.3697 50.2515C16.2674 50.2936 16.1587 50.3277 16.0493 50.3619C15.7524 50.4548 15.4509 50.5492 15.2596 50.8114C15.4939 51.1383 15.8387 51.3332 16.1802 51.5262C16.2704 51.5771 16.3602 51.6279 16.4478 51.6809C17.3832 52.2315 18.3193 52.781 19.2554 53.3305C20.3731 53.9867 21.4909 54.6429 22.6077 55.3009C23.9586 56.1776 25.7738 56.2401 27.1682 55.4297C30.4116 53.5709 33.6545 51.711 36.8975 49.8511C40.4972 47.7865 44.097 45.7219 47.6978 43.6586C49.0603 42.936 50.0095 41.4404 49.9999 39.8654V16.1377C50.013 14.6253 49.1492 13.1645 47.8577 12.4252C43.8365 10.114 39.8141 7.8058 35.7917 5.4976C32.946 3.8646 30.1002 2.2315 27.2548 0.597398Z" fill="#68EB3A"/>
<path d="M37.5803 18.4125C34.8944 16.918 31.6991 16.8384 28.7143 17.0337C26.5581 17.2553 24.2902 17.8742 22.7191 19.4817C21.1078 21.0978 20.7571 23.7074 21.5224 25.8171C22.0709 27.3078 23.4514 28.2773 24.8791 28.79C26.7182 29.4652 28.6497 29.674 30.5818 29.8828C32.3441 30.0733 34.107 30.2638 35.8009 30.8084C36.4928 31.047 37.2985 31.4117 37.5105 32.1946C37.7061 33.1218 37.4916 34.1996 36.7677 34.8438C35.4668 35.9147 33.7026 35.9908 32.09 36.0605C32.0018 36.0643 31.9141 36.0681 31.8269 36.072C31.6565 36.0693 31.4847 36.0673 31.3119 36.0654C29.4271 36.0441 27.4246 36.0215 25.801 34.9569C24.8826 34.3223 24.4868 33.1988 24.3259 32.1284C24.308 31.7947 24.0498 31.4887 23.7014 31.5141C22.8294 31.5033 21.9573 31.5057 21.0852 31.5129C20.7808 31.4863 20.4645 31.7115 20.4478 32.0344C20.378 33.9465 21.0817 35.9276 22.5224 37.1991C24.2073 38.7105 26.4786 39.2932 28.6611 39.5461C30.9822 39.7761 33.3542 39.7629 35.6398 39.245C37.3578 38.8381 39.0804 38.089 40.2631 36.7126C41.7216 35.0401 42.0083 32.5498 41.3542 30.4664C40.8542 28.9119 39.4252 27.9147 37.9644 27.4017C35.9779 26.6933 33.9017 26.4138 31.8245 26.1343C30.2121 25.9173 28.5992 25.7002 27.0273 25.2824C27.0006 25.2738 26.9737 25.2653 26.9465 25.2566C26.3385 25.0632 25.6278 24.837 25.3614 24.1938C25.0663 23.258 25.3175 22.096 26.1444 21.5204C27.2215 20.7605 28.5887 20.6487 29.8602 20.5801C29.9056 20.5796 29.9512 20.5791 29.9968 20.5787C31.6983 20.5615 33.4954 20.5434 35.0508 21.335C36.0913 21.8768 36.6941 22.9896 36.943 24.113C36.9891 24.4431 37.2026 24.7874 37.5699 24.773C38.1625 24.7853 38.7551 24.783 39.3477 24.7807C39.6212 24.7797 39.8947 24.7786 40.1681 24.779C40.4656 24.8007 40.7914 24.626 40.8495 24.3093C40.8128 21.9612 39.6599 19.5577 37.5803 18.4125Z" fill="#68EB3A"/>
</svg>
