<svg width="100" height="129" viewBox="0 0 100 129" fill="none" xmlns="http://www.w3.org/2000/svg">
<path d="M27.8442 97H29.5039V94.39H31.6846C33.3228 94.39 34.2949 93.471 34.2949 91.946C34.2949 90.42 33.3281 89.411 31.6846 89.411H27.8442V97ZM29.5039 92.982V90.818H31.416C32.2646 90.818 32.6406 91.205 32.6406 91.897C32.6406 92.574 32.2808 92.982 31.416 92.982H29.5039Z" fill="black"/>
<path d="M37.0449 97H38.71V94.046L41.5566 89.411H39.6821L37.9097 92.59L36.0728 89.411H34.1982L37.0449 94.046V97Z" fill="black"/>
<path d="M44.0166 97H45.6816V90.812H47.959V89.411H41.75V90.812H44.0166V97Z" fill="black"/>
<path d="M48.9849 97H50.6499V93.896H54.0015V97H55.6665V89.411H54.0015V92.499H50.6499V89.411H48.9849V97Z" fill="black"/>
<path d="M60.5381 97.107C62.7563 97.107 64.1582 95.738 64.1582 93.203C64.1582 90.673 62.7563 89.298 60.5381 89.298C58.3091 89.298 56.9448 90.673 56.9448 93.203C56.9448 95.738 58.3091 97.107 60.5381 97.107ZM60.5381 95.689C59.2383 95.689 58.5991 94.728 58.5991 93.203C58.5991 91.683 59.2383 90.721 60.5381 90.721C61.8271 90.721 62.5039 91.683 62.5039 93.203C62.5039 94.728 61.8271 95.689 60.5381 95.689Z" fill="black"/>
<path d="M65.4312 97H67.0962V91.865H67.1553L70.3726 97H72.1504V89.411H70.4854V94.567H70.437L67.1875 89.411H65.4312V97Z" fill="black"/>
<path fill-rule="evenodd" clip-rule="evenodd" d="M37.9193 30.5333C37.9193 30.5333 37.1268 25 49.8199 25C63.0852 25 62.0601 31.6714 62.0601 31.6714V42.695C62.0601 49.3621 55.3103 49.2525 55.3103 49.2525H43.2966C36.0922 49.2525 36.3203 56.3789 36.3203 56.3789V62.3532H32.0894C32.0894 62.3532 25 62.8098 25 49.9352C25 37.061 33.1224 37.987 33.1224 37.987H50.0463V36.2659H37.9334L37.9193 30.5333ZM43.9751 29.0213C43.7106 28.9113 43.4271 28.8548 43.1409 28.8551C42.8547 28.8548 42.5712 28.9113 42.3067 29.0213C42.0422 29.1313 41.8019 29.2926 41.5995 29.4961C41.3971 29.6995 41.2366 29.9411 41.1272 30.207C41.0177 30.4729 40.9616 30.7578 40.9618 31.0456C40.9616 31.3333 41.0177 31.6182 41.1272 31.8841C41.2366 32.15 41.3971 32.3916 41.5995 32.595C41.8019 32.7985 42.0422 32.9598 42.3067 33.0698C42.5712 33.1798 42.8547 33.2363 43.1409 33.236C43.4271 33.2363 43.7106 33.1798 43.9751 33.0698C44.2396 32.9598 44.4799 32.7985 44.6823 32.595C44.8847 32.3916 45.0452 32.15 45.1546 31.8841C45.2641 31.6182 45.3203 31.3333 45.32 31.0456C45.3203 30.7578 45.2641 30.4729 45.1546 30.207C45.0452 29.9411 44.8847 29.6995 44.6823 29.4961C44.4799 29.2926 44.2396 29.1313 43.9751 29.0213Z" fill="#0076E3"/>
<path fill-rule="evenodd" clip-rule="evenodd" d="M62.0809 69.4667C62.0809 69.4667 62.8734 75 50.1803 75C36.9152 75 37.9399 68.3288 37.9399 68.3288V57.3049C37.9399 50.6377 44.6897 50.7473 44.6897 50.7473H56.7034C63.9078 50.7473 63.6797 43.6208 63.6797 43.6208V37.6467H67.9106C67.9106 37.6467 75 37.1901 75 50.0645C75 62.9392 66.8776 62.0132 66.8776 62.0132H49.9537V63.7343H62.0668L62.0809 69.4667ZM56.0251 70.9791C56.2896 71.0891 56.5731 71.1456 56.8593 71.1453C57.1455 71.1456 57.429 71.0889 57.6935 70.9789C57.958 70.8689 58.1983 70.7076 58.4007 70.5041C58.6031 70.3006 58.7636 70.0591 58.873 69.7932C58.9825 69.5273 59.0386 69.2424 59.0384 68.9546C59.0386 68.6669 58.9825 68.3819 58.873 68.1161C58.7636 67.8502 58.6031 67.6086 58.4007 67.4051C58.1983 67.2017 57.958 67.0403 57.6935 66.9304C57.429 66.8204 57.1455 66.7639 56.8593 66.7641C56.573 66.7639 56.2895 66.8204 56.025 66.9304C55.7605 67.0404 55.5202 67.2017 55.3178 67.4052C55.1154 67.6087 54.9549 67.8503 54.8455 68.1162C54.7361 68.3821 54.6799 68.6671 54.6802 68.9548C54.6799 69.2426 54.7361 69.5275 54.8455 69.7934C54.955 70.0593 55.1155 70.3008 55.3179 70.5043C55.5203 70.7078 55.7606 70.8691 56.0251 70.9791Z" fill="#FFE600"/>
</svg>
