<svg width="138" height="61" viewBox="0 0 138 61" fill="none" xmlns="http://www.w3.org/2000/svg">
<path d="M127.351 40.9766V36.9482L129.577 36.9775C129.968 36.9775 130.344 36.9141 130.705 36.7871C131.066 36.6602 131.398 36.4844 131.701 36.2598C132.014 36.0352 132.287 35.7666 132.521 35.4541C132.756 35.1514 132.946 34.8193 133.093 34.458C132.653 34.6436 132.204 34.8291 131.745 35.0146C131.296 35.2002 130.842 35.293 130.383 35.293C129.416 35.293 128.508 35.1221 127.658 34.7803C126.809 34.4385 126.062 33.9551 125.417 33.3301C124.782 32.6953 124.279 31.9287 123.908 31.0303C123.547 30.1221 123.366 29.1064 123.366 27.9834V19.3115H127.351V27.9834C127.351 28.54 127.429 29.0283 127.585 29.4482C127.751 29.8584 127.971 30.2051 128.244 30.4883C128.518 30.7617 128.835 30.9668 129.196 31.1035C129.567 31.2402 129.963 31.3086 130.383 31.3086C130.793 31.3086 131.179 31.2158 131.54 31.0303C131.911 30.835 132.233 30.5811 132.507 30.2686C132.78 29.9561 132.995 29.6045 133.151 29.2139C133.308 28.8135 133.386 28.4033 133.386 27.9834V19.3115H137.414V33.0225C137.404 34.126 137.189 35.1611 136.77 36.1279C136.35 37.0947 135.773 37.9395 135.041 38.6621C134.318 39.3848 133.474 39.9561 132.507 40.376C131.54 40.7959 130.505 41.0059 129.401 41.0059L127.351 40.9766Z" fill="black"/>
<path d="M120.812 35C119.846 35 118.938 34.8193 118.088 34.458C117.238 34.0869 116.491 33.584 115.847 32.9492C115.212 32.3047 114.709 31.5576 114.338 30.708C113.977 29.8584 113.796 28.9502 113.796 27.9834V23.3252H111.848V19.3408H113.796V13.0713H117.78V19.3408H123.845V23.3252H117.78V27.9834C117.78 28.4033 117.858 28.7988 118.015 29.1699C118.171 29.5312 118.386 29.8486 118.659 30.1221C118.933 30.3955 119.255 30.6152 119.626 30.7812C119.997 30.9375 120.393 31.0156 120.812 31.0156H123.845V35H120.812Z" fill="black"/>
<circle cx="103" cy="26" r="4.5" stroke="black" stroke-width="7"/>
<path d="M93.9473 27.2456C93.9473 28.6958 93.7568 30.0947 93.376 31.4424C93.0098 32.7754 92.4824 34.0278 91.7939 35.1997C91.1055 36.3569 90.2852 37.4189 89.333 38.3857C88.3809 39.3379 87.3188 40.1582 86.147 40.8467C84.9751 41.5352 83.7153 42.0698 82.3677 42.4507C81.0347 42.8169 79.6431 43 78.1929 43H68.7007V11.4912H78.1929C79.6431 11.4912 81.0347 11.6816 82.3677 12.0625C83.7153 12.4287 84.9751 12.9561 86.147 13.6445C87.3188 14.333 88.3809 15.1606 89.333 16.1274C90.2852 17.0796 91.1055 18.1416 91.7939 19.3135C92.4824 20.4707 93.0098 21.7231 93.376 23.0708C93.7568 24.4038 93.9473 25.7954 93.9473 27.2456ZM87.6411 27.2456C87.6411 25.9419 87.3921 24.7188 86.894 23.5762C86.4106 22.4336 85.7368 21.4375 84.8726 20.5879C84.0229 19.7236 83.0195 19.0425 81.8623 18.5444C80.7197 18.0464 79.4966 17.7974 78.1929 17.7974H75.0508V36.6938H78.1929C79.4966 36.6938 80.7197 36.4521 81.8623 35.9688C83.0195 35.4707 84.0229 34.7969 84.8726 33.9473C85.7368 33.083 86.4106 32.0796 86.894 30.937C87.3921 29.7798 87.6411 28.5493 87.6411 27.2456Z" fill="black"/>
<path d="M53.585 34H49.5859V18.3115H50.5527L51.8711 19.835C52.5156 19.249 53.2432 18.7998 54.0537 18.4873C54.874 18.165 55.7285 18.0039 56.6172 18.0039C57.5742 18.0039 58.4775 18.1895 59.3271 18.5605C60.1768 18.9219 60.9189 19.4248 61.5537 20.0693C62.1885 20.7041 62.6865 21.4512 63.0479 22.3105C63.4189 23.1602 63.6045 24.0684 63.6045 25.0352V34H59.6055V25.0352C59.6055 24.625 59.5273 24.2393 59.3711 23.8779C59.2148 23.5068 59 23.1846 58.7266 22.9111C58.4531 22.6377 58.1357 22.4229 57.7744 22.2666C57.4131 22.1104 57.0273 22.0322 56.6172 22.0322C56.1973 22.0322 55.8018 22.1104 55.4307 22.2666C55.0596 22.4229 54.7373 22.6377 54.4639 22.9111C54.1904 23.1846 53.9756 23.5068 53.8193 23.8779C53.6631 24.2393 53.585 24.625 53.585 25.0352V34Z" fill="black"/>
<path d="M38.085 34H34.0859V12.0713H38.085V19C38.5635 18.6387 39.0566 18.3848 39.5645 18.2383C40.0723 18.082 40.5898 18.0039 41.1172 18.0039C42.084 18.0039 42.9922 18.1895 43.8418 18.5605C44.6914 18.9219 45.4287 19.4248 46.0537 20.0693C46.6885 20.7041 47.1865 21.4512 47.5479 22.3105C47.9189 23.1602 48.1045 24.0684 48.1045 25.0352V34H44.0762V25.0352H44.1055C44.1055 24.625 44.0273 24.2393 43.8711 23.8779C43.7148 23.5068 43.5 23.1846 43.2266 22.9111C42.9531 22.6377 42.6357 22.4229 42.2744 22.2666C41.9131 22.1104 41.5273 22.0322 41.1172 22.0322C40.6973 22.0322 40.3018 22.1104 39.9307 22.2666C39.5596 22.4229 39.2373 22.6377 38.9639 22.9111C38.6904 23.1846 38.4756 23.5068 38.3193 23.8779C38.1631 24.2393 38.085 24.625 38.085 25.0352V34Z" fill="black"/>
<circle cx="25" cy="24" r="4.5" stroke="black" stroke-width="7"/>
<path d="M16.3115 30.4097C16.3115 32.1528 15.9819 33.7935 15.3228 35.3315C14.6636 36.855 13.7627 38.188 12.6201 39.3306C11.4922 40.4585 10.1592 41.3521 8.62109 42.0112C7.09766 42.6704 5.46436 43 3.72119 43C2.6665 43 1.61182 42.8682 0.557129 42.6045V35.8369C1.02588 36.1152 1.53125 36.3276 2.07324 36.4741C2.61523 36.6206 3.16455 36.6938 3.72119 36.6938C4.58545 36.6938 5.39844 36.5327 6.16016 36.2104C6.93652 35.8735 7.61035 35.4194 8.18164 34.8481C8.75293 34.2769 9.19971 33.6104 9.52197 32.8486C9.85889 32.0869 10.0273 31.2739 10.0273 30.4097V11.4912H16.3115V30.4097Z" fill="black"/>
</svg>
