<svg width="20" height="20" viewBox="0 0 20 20" fill="none" xmlns="http://www.w3.org/2000/svg">
<circle cx="10" cy="10" r="6" fill="white"/>
<path d="M10 0L10.866 3H9.13397L10 0Z" fill="white"/>
<path d="M10 20L9.13397 17L10.866 17L10 20Z" fill="white"/>
<path d="M15 1.33975L14.25 4.37084L12.75 3.50482L15 1.33975Z" fill="white"/>
<path d="M5 18.6602L5.75 15.6292L7.25 16.4952L5 18.6602Z" fill="white"/>
<path d="M18.6602 5L16.4952 7.25L15.6291 5.75L18.6602 5Z" fill="white"/>
<path d="M1.33972 15L3.50479 12.75L4.37081 14.25L1.33972 15Z" fill="white"/>
<path d="M19.9999 10L16.9999 10.866L16.9999 9.13397L19.9999 10Z" fill="white"/>
<path d="M1.39839e-07 10L3 9.13397L3 10.866L1.39839e-07 10Z" fill="white"/>
<path d="M18.6602 15L15.6291 14.25L16.4952 12.75L18.6602 15Z" fill="white"/>
<path d="M1.33972 5L4.37081 5.75L3.50478 7.25L1.33972 5Z" fill="white"/>
<path d="M14.9999 18.6602L12.7499 16.4952L14.2499 15.6292L14.9999 18.6602Z" fill="white"/>
<path d="M5 1.33975L7.25 3.50482L5.75 4.37084L5 1.33975Z" fill="white"/>
</svg>
