<svg width="100" height="129" viewBox="0 0 100 129" fill="none" xmlns="http://www.w3.org/2000/svg">
<path d="M38.7905 97.107C40.7778 97.107 42.1099 96.055 42.2549 94.003H40.5845C40.5039 95.077 39.8486 95.689 38.7905 95.689C37.4907 95.689 36.8516 94.728 36.8516 93.203C36.8516 91.683 37.4907 90.721 38.7905 90.721C39.8486 90.721 40.5039 91.333 40.5845 92.408H42.2549C42.1099 90.356 40.7778 89.298 38.7905 89.298C36.5615 89.298 35.1973 90.673 35.1973 93.203C35.1973 95.738 36.5615 97.107 38.7905 97.107Z" fill="black"/>
<path d="M46.0791 97.086C47.9966 97.086 49.0117 96.092 49.0117 94.653C49.0117 92.95 47.5938 92.623 46.4014 92.359C45.5366 92.161 44.79 91.994 44.79 91.35C44.79 90.834 45.1982 90.522 45.8911 90.522C46.6108 90.522 47.105 90.872 47.1211 91.624H48.7109C48.6948 89.765 47.0674 89.298 45.8696 89.298C44.2744 89.298 43.1626 90.109 43.1626 91.575C43.1626 93.079 44.4033 93.423 45.5259 93.691C46.4658 93.912 47.3359 94.089 47.3359 94.868C47.3359 95.448 46.874 95.77 46.1274 95.77C45.3271 95.77 44.7041 95.394 44.6719 94.438H43.0337C43.0337 96.522 44.6289 97.086 46.0791 97.086Z" fill="black"/>
<path d="M52.8145 97.086C54.7319 97.086 55.7471 96.092 55.7471 94.653C55.7471 92.95 54.3291 92.623 53.1367 92.359C52.272 92.161 51.5254 91.994 51.5254 91.35C51.5254 90.834 51.9336 90.522 52.6265 90.522C53.3462 90.522 53.8403 90.872 53.8564 91.624H55.4463C55.4302 89.765 53.8027 89.298 52.605 89.298C51.0098 89.298 49.8979 90.109 49.8979 91.575C49.8979 93.079 51.1387 93.423 52.2612 93.691C53.2012 93.912 54.0713 94.089 54.0713 94.868C54.0713 95.448 53.6094 95.77 52.8628 95.77C52.0625 95.77 51.4395 95.394 51.4072 94.438H49.769C49.769 96.522 51.3643 97.086 52.8145 97.086Z" fill="black"/>
<path d="M61.9507 97.107C63.417 97.107 64.7544 96.291 64.7544 94.728C64.7437 93.643 64.0991 93.09 63.4009 92.961V92.923C63.9219 92.741 64.373 92.257 64.373 91.446C64.373 90.093 63.186 89.298 61.811 89.298C60.3877 89.298 59.3027 90.152 59.3027 91.731H60.8657C60.8765 91.172 61.1826 90.743 61.8486 90.743C62.4019 90.743 62.7832 91.033 62.7832 91.591C62.7832 92.118 62.4717 92.392 61.9614 92.392H61.6016V93.616H61.9614C62.6543 93.616 63.1538 93.971 63.1538 94.647C63.1538 95.33 62.6274 95.679 61.9829 95.679C61.2095 95.679 60.769 95.179 60.769 94.427H59.1846C59.1846 96.264 60.4629 97.107 61.9507 97.107Z" fill="black"/>
<path d="M45.9307 24H40.4724V31.0077H45.931V28.6719H42.7551V26.336H45.9307V24Z" fill="#27BEFF"/>
<path d="M52.481 24H47.0225L47.0224 28.5701H50.1985V28.9763H47.0227V31.1094H52.481V26.4375H49.3052V26.0313H52.481V24Z" fill="#27BEFF"/>
<path d="M59.0313 24H53.573V28.5701H56.7486V28.9763H53.5728V31.1094H59.0313V26.4375H55.8555V26.0313H59.0313V24Z" fill="#27BEFF"/>
<path fill-rule="evenodd" clip-rule="evenodd" d="M49.978 76L35.2763 71.8234L32 34.2193H68L64.7203 71.8176L49.978 76ZM39.9146 55.8527L39.5107 51.2407L55.9249 51.2408L56.3349 46.518H39.1087L38.699 41.906H61.274L60.4605 51.2408L60.3505 52.4792L59.2236 65.4004L50 68.0162V68.017L49.9793 68.0228L40.7473 65.4003L40.116 58.1588H44.6402L44.9611 61.837L49.9802 63.224L49.9843 63.2229L55.0109 61.8342L55.5341 55.8527H39.9146Z" fill="#27BEFF"/>
</svg>
