<svg width="36" height="74" viewBox="0 0 36 74" fill="none" xmlns="http://www.w3.org/2000/svg">
<path class="letter" d="M6.7905 73.107C8.7778 73.107 10.1099 72.055 10.2549 70.003H8.5845C8.5039 71.077 7.8486 71.689 6.7905 71.689C5.4907 71.689 4.8516 70.728 4.8516 69.203C4.8516 67.683 5.4907 66.721 6.7905 66.721C7.8486 66.721 8.5039 67.333 8.5845 68.408H10.2549C10.1099 66.356 8.7778 65.298 6.7905 65.298C4.5615 65.298 3.1973 66.673 3.1973 69.203C3.1973 71.738 4.5615 73.107 6.7905 73.107Z" fill="black"/>
<path class="letter" d="M14.0791 73.086C15.9966 73.086 17.0117 72.092 17.0117 70.653C17.0117 68.95 15.5938 68.623 14.4014 68.359C13.5366 68.161 12.79 67.994 12.79 67.35C12.79 66.834 13.1982 66.522 13.8911 66.522C14.6108 66.522 15.105 66.872 15.1211 67.624H16.7109C16.6948 65.765 15.0674 65.298 13.8696 65.298C12.2744 65.298 11.1626 66.109 11.1626 67.575C11.1626 69.079 12.4033 69.423 13.5259 69.691C14.4658 69.912 15.3359 70.089 15.3359 70.868C15.3359 71.448 14.874 71.77 14.1274 71.77C13.3271 71.77 12.7041 71.394 12.6719 70.438H11.0337C11.0337 72.522 12.6289 73.086 14.0791 73.086Z" fill="black"/>
<path class="letter" d="M20.8145 73.086C22.7319 73.086 23.7471 72.092 23.7471 70.653C23.7471 68.95 22.3291 68.623 21.1367 68.359C20.272 68.161 19.5254 67.994 19.5254 67.35C19.5254 66.834 19.9336 66.522 20.6265 66.522C21.3462 66.522 21.8403 66.872 21.8564 67.624H23.4463C23.4302 65.765 21.8027 65.298 20.605 65.298C19.0098 65.298 17.8979 66.109 17.8979 67.575C17.8979 69.079 19.1387 69.423 20.2612 69.691C21.2012 69.912 22.0713 70.089 22.0713 70.868C22.0713 71.448 21.6094 71.77 20.8628 71.77C20.0625 71.77 19.4395 71.394 19.4072 70.438H17.769C17.769 72.522 19.3643 73.086 20.8145 73.086Z" fill="black"/>
<path class="letter" d="M29.9507 73.107C31.417 73.107 32.7544 72.291 32.7544 70.728C32.7437 69.643 32.0991 69.09 31.4009 68.961V68.923C31.9219 68.741 32.373 68.257 32.373 67.446C32.373 66.093 31.186 65.298 29.811 65.298C28.3877 65.298 27.3027 66.152 27.3027 67.731H28.8657C28.8765 67.172 29.1826 66.743 29.8486 66.743C30.4019 66.743 30.7832 67.033 30.7832 67.591C30.7832 68.118 30.4717 68.392 29.9614 68.392H29.6016V69.616H29.9614C30.6543 69.616 31.1538 69.971 31.1538 70.647C31.1538 71.33 30.6274 71.679 29.9829 71.679C29.2095 71.679 28.769 71.179 28.769 70.427H27.1846C27.1846 72.264 28.4629 73.107 29.9507 73.107Z" fill="black"/>
<path d="M13.9307 0H8.4724V7.0077H13.931V4.6719H10.7551V2.336H13.9307V0Z" fill="#27BEFF"/>
<path d="M20.481 0H15.0225L15.0224 4.5701H18.1985V4.9763H15.0227V7.1094H20.481V2.4375H17.3052V2.0313H20.481V0Z" fill="#27BEFF"/>
<path d="M27.0313 0H21.573V4.5701H24.7486V4.9763H21.5728V7.1094H27.0313V2.4375H23.8555V2.0313H27.0313V0Z" fill="#27BEFF"/>
<path fill-rule="evenodd" clip-rule="evenodd" d="M17.978 52L3.2763 47.8234L0 10.2193H36L32.7203 47.8176L17.978 52ZM7.9146 31.8527L7.5107 27.2407L23.9249 27.2408L24.3349 22.518H7.1087L6.699 17.906H29.274L28.4605 27.2408L28.3505 28.4792L27.2236 41.4004L18 44.0162V44.017L17.9793 44.0228L8.7473 41.4003L8.116 34.1588H12.6402L12.9611 37.837L17.9802 39.224L17.9843 39.2229L23.0109 37.8342L23.5341 31.8527H7.9146Z" fill="#27BEFF"/>
</svg>
