<svg width="50" height="73" viewBox="0 0 50 73" fill="none" xmlns="http://www.w3.org/2000/svg">
<path class="letter" d="M8.30129 69.073H9.99849C9.89649 69.895 9.37549 70.657 8.18309 70.657C6.74369 70.657 6.21729 69.535 6.21729 68.165C6.21729 66.774 6.77049 65.678 8.20999 65.678C9.16599 65.678 9.86959 66.151 9.89109 67.042H11.583C11.5562 65.189 9.99319 64.292 8.19379 64.292C5.85209 64.292 4.53079 65.802 4.53079 68.224C4.53079 70.609 5.80909 72.107 7.95209 72.107C8.94039 72.107 9.76759 71.742 10.1973 71.071L10.2026 72H11.583V67.762H8.30129V69.073Z" fill="black"/>
<path class="letter" d="M13.1138 72H14.7788V64.411H13.1138V72Z" fill="black"/>
<path class="letter" d="M18.0713 72H19.7363V65.812H22.0137V64.411H15.8047V65.812H18.0713V72Z" fill="black"/>
<path class="letter" d="M23.0396 72H24.7046V68.896H28.0562V72H29.7212V64.411H28.0562V67.499H24.7046V64.411H23.0396V72Z" fill="black"/>
<path class="letter" d="M34.3296 72.107C36.3975 72.107 37.4019 70.979 37.4019 69.073V64.411H35.7368V69.18C35.7368 70.072 35.2158 70.593 34.3296 70.593C33.4541 70.593 32.9546 70.072 32.9546 69.18V64.411H31.2896V69.126C31.2896 70.99 32.2778 72.107 34.3296 72.107Z" fill="black"/>
<path class="letter" d="M38.9595 72H42.9609C44.5938 72 45.5122 71.184 45.5122 69.895C45.5122 68.788 44.8408 68.192 44.0674 68.047V68.009C44.5991 67.8 45.1201 67.327 45.1201 66.419C45.1201 65.2 44.207 64.411 42.6494 64.411H38.9595V72ZM40.6245 67.488V65.823H42.4561C43.1328 65.823 43.4229 66.092 43.4229 66.624C43.4229 67.166 43.1328 67.488 42.4185 67.488H40.6245ZM40.6245 70.582V68.772H42.7944C43.4551 68.772 43.8364 69.094 43.8364 69.685C43.8364 70.201 43.5464 70.582 42.7944 70.582H40.6245Z" fill="black"/>
<path d="M25 0C11.1872 0 0 11.3578 0 25.3813C0 37.3094 8.0617 47.2091 18.9383 50C18.8128 49.6825 18.7511 49.2375 18.7511 48.7947V44.4788H15.6255C13.9383 44.4788 12.3745 43.7184 11.6872 42.3208C10.8745 40.7979 10.7489 38.4499 8.6872 36.9897C8.0617 36.4821 8.5617 35.9744 9.2489 36.0371C10.5617 36.4172 11.6234 37.3072 12.6234 38.6378C13.6234 39.9706 14.0617 40.2882 15.9362 40.2882C16.8106 40.2882 18.1851 40.2255 19.4362 40.0333C20.1234 38.2555 21.3106 36.67 22.7489 35.9096C14.3745 34.8944 10.3745 30.7059 10.3745 24.9946C10.3745 22.5191 11.4362 20.1711 13.1872 18.1406C12.6255 16.1727 11.8745 12.1117 13.4383 10.5262C17.1894 10.5262 19.4383 13.0017 20 13.6346C21.8745 12.9995 23.9383 12.6193 26.0617 12.6193C28.2489 12.6193 30.2489 12.9995 32.1234 13.6346C32.6851 12.9995 34.9362 10.5262 38.6851 10.5262C40.1851 12.0491 39.4979 16.1727 38.8723 18.1406C40.6234 20.1084 41.6234 22.5191 41.6234 24.9946C41.6234 30.7059 37.6851 34.8944 29.3745 35.7822C31.6872 36.9875 33.3128 40.4134 33.3128 42.9516V48.732C33.3128 48.9221 33.2511 49.1122 33.2511 49.3023C43 45.8764 50 36.4864 50 25.3813C50 11.3578 38.8128 0 25 0Z" fill="#DCDCDC"/>
</svg>
