<svg width="40" height="40" viewBox="0 0 40 40" fill="none" xmlns="http://www.w3.org/2000/svg">
<circle cx="20" cy="20" r="20" fill="#003D99"/>
<path d="M2.81377 30.235C5.24841 34.3138 9.09423 37.4526 13.6775 38.9784C14.6782 39.1614 15.0428 38.5438 15.0428 38.0134C15.0428 37.7938 15.0391 37.4058 15.0342 36.8866C15.0285 36.2852 15.0211 35.5079 15.0158 34.6124C9.45271 35.8206 8.27895 31.931 8.27895 31.931C7.36916 29.6215 6.05789 29.0064 6.05789 29.0064C4.24199 27.7651 6.1954 27.7896 6.1954 27.7896C8.20283 27.9321 9.25872 29.8511 9.25872 29.8511C11.0427 32.9071 13.9403 32.0243 15.0796 31.5135C15.2614 30.2207 15.777 29.3391 16.3492 28.8394C11.9083 28.3348 7.23902 26.6183 7.23902 18.9545C7.23902 16.7715 8.01866 14.9863 9.29801 13.5879C9.09174 13.082 8.40541 11.0488 9.49323 8.29488C9.49323 8.29488 11.1728 7.75711 14.9937 10.3453C16.5886 9.90205 18.3001 9.67982 20.0006 9.67246C21.6986 9.67982 23.4102 9.90205 25.0075 10.3453C28.8259 7.75711 30.5019 8.29488 30.5019 8.29488C31.5934 11.0488 30.907 13.082 30.7008 13.5879C31.9826 14.9863 32.7573 16.7715 32.7573 18.9545C32.7573 26.638 28.0807 28.3286 23.625 28.8234C24.3433 29.441 24.983 30.6614 24.983 32.5277C24.983 34.3152 24.972 35.8722 24.9647 36.9035C24.9611 37.4143 24.9584 37.7962 24.9584 38.0134C24.9584 38.5487 25.3181 39.1712 26.3335 38.976C29.9847 37.7572 33.1674 35.5154 35.5406 32.5903C31.8737 37.1108 26.2742 40 20 40C12.6946 40 6.30408 36.0832 2.81377 30.235Z" fill="white"/>
</svg>
