<svg width="70" height="73" viewBox="0 0 70 73" fill="none" xmlns="http://www.w3.org/2000/svg">
<path class="letter" d="M0.614288 72H1.72609C3.28909 72 4.14309 71.361 4.14309 69.835V64.411H2.47799V69.508C2.47799 70.362 2.14499 70.593 1.37159 70.593H0.614288V72Z" fill="black"/>
<path class="letter" d="M10.7012 72H12.5005L9.85791 64.411H7.64501L5.00241 72H6.80181L7.37111 70.201H10.1318L10.7012 72ZM7.79541 68.863L8.73001 65.925H8.77291L9.70751 68.863H7.79541Z" fill="black"/>
<path class="letter" d="M14.8745 72H17.0874L19.73 64.411H17.9307L16.0024 70.501H15.9595L14.0312 64.411H12.2319L14.8745 72Z" fill="black"/>
<path class="letter" d="M25.1602 72H26.9595L24.3169 64.411H22.104L19.4614 72H21.2607L21.8301 70.201H24.5908L25.1602 72ZM22.2544 68.863L23.189 65.925H23.2319L24.1665 68.863H22.2544Z" fill="black"/>
<path class="letter" d="M33.147 72.086C35.0645 72.086 36.0796 71.092 36.0796 69.653C36.0796 67.95 34.6616 67.623 33.4692 67.359C32.6045 67.161 31.8579 66.994 31.8579 66.35C31.8579 65.834 32.2661 65.522 32.959 65.522C33.6787 65.522 34.1729 65.872 34.189 66.624H35.7788C35.7627 64.765 34.1353 64.298 32.9375 64.298C31.3423 64.298 30.2305 65.109 30.2305 66.575C30.2305 68.079 31.4712 68.423 32.5938 68.691C33.5337 68.912 34.4038 69.089 34.4038 69.868C34.4038 70.448 33.9419 70.77 33.1953 70.77C32.395 70.77 31.772 70.394 31.7397 69.438H30.1016C30.1016 71.522 31.6968 72.086 33.147 72.086Z" fill="black"/>
<path class="letter" d="M40.5215 72.107C42.5088 72.107 43.8408 71.055 43.9858 69.003H42.3154C42.2349 70.077 41.5796 70.689 40.5215 70.689C39.2217 70.689 38.5825 69.728 38.5825 68.203C38.5825 66.683 39.2217 65.721 40.5215 65.721C41.5796 65.721 42.2349 66.333 42.3154 67.408H43.9858C43.8408 65.356 42.5088 64.298 40.5215 64.298C38.2925 64.298 36.9282 65.673 36.9282 68.203C36.9282 70.738 38.2925 72.107 40.5215 72.107Z" fill="black"/>
<path class="letter" d="M51.2529 70.088C51.1025 69.234 50.8125 68.697 50.1089 68.477C51.0273 68.246 51.4785 67.698 51.4785 66.65C51.4785 65.249 50.5493 64.411 48.75 64.411H45.2319V72.011H46.8916V68.847H47.5576C49.1743 68.847 49.416 69.067 49.604 70.222L49.8994 72H51.5913L51.2529 70.088ZM46.9023 65.818H48.7446C49.4644 65.818 49.8135 66.146 49.8135 66.688C49.8135 67.198 49.4966 67.569 48.8037 67.569H46.9023V65.818Z" fill="black"/>
<path class="letter" d="M52.9126 72H54.5776V64.411H52.9126V72Z" fill="black"/>
<path class="letter" d="M56.3071 72H57.9668V69.39H60.1475C61.7856 69.39 62.7578 68.471 62.7578 66.946C62.7578 65.42 61.791 64.411 60.1475 64.411H56.3071V72ZM57.9668 67.982V65.818H59.8789C60.7275 65.818 61.1035 66.205 61.1035 66.897C61.1035 67.574 60.7437 67.982 59.8789 67.982H57.9668Z" fill="black"/>
<path class="letter" d="M65.4434 72H67.1084V65.812H69.3857V64.411H63.1768V65.812H65.4434V72Z" fill="black"/>
<path fill-rule="evenodd" clip-rule="evenodd" d="M60 0H10V50H60V0ZM26.973 39.468L23.1469 41.7836C24.2545 44.133 26.4361 46.0793 30.1949 46.0793C34.357 46.0793 37.2098 43.8641 37.2098 38.9975V22.9549H32.5111V38.9311C32.5111 41.2803 31.5375 41.8842 29.9935 41.8842C28.3828 41.8842 27.7113 40.7768 26.973 39.468ZM43.5877 39.0651L39.7619 41.2801C41.1379 43.9989 43.957 46.0799 48.3201 46.0799C52.784 46.0799 56.1066 43.7643 56.1066 39.535C56.1066 35.6084 53.858 33.8633 49.8638 32.1514L48.6892 31.6481C46.6756 30.7754 45.8029 30.2045 45.8029 28.7949C45.8029 27.6539 46.6756 26.7813 48.0517 26.7813C49.3943 26.7813 50.2666 27.3518 51.0723 28.7949L54.7308 26.4453C53.1871 23.7268 51.039 22.6862 48.0519 22.6862C43.8564 22.6862 41.1715 25.3713 41.1715 28.8955C41.1715 32.7217 43.4201 34.5342 46.8101 35.977L47.9846 36.4809C50.1326 37.4203 51.408 37.991 51.408 39.602C51.408 40.9446 50.1666 41.918 48.2195 41.918C45.9039 41.918 44.5949 40.7098 43.5877 39.0651Z" fill="#FFDE2E"/>
</svg>
