<svg width="100" height="129" viewBox="0 0 100 129" fill="none" xmlns="http://www.w3.org/2000/svg">
<path d="M15.6143 97H16.7261C18.2891 97 19.1431 96.361 19.1431 94.835V89.411H17.478V94.508C17.478 95.362 17.145 95.593 16.3716 95.593H15.6143V97Z" fill="black"/>
<path d="M25.7012 97H27.5005L24.8579 89.411H22.645L20.0024 97H21.8018L22.3711 95.201H25.1318L25.7012 97ZM22.7954 93.863L23.73 90.925H23.7729L24.7075 93.863H22.7954Z" fill="black"/>
<path d="M29.8745 97H32.0874L34.73 89.411H32.9307L31.0024 95.501H30.9595L29.0312 89.411H27.2319L29.8745 97Z" fill="black"/>
<path d="M40.1602 97H41.9595L39.3169 89.411H37.104L34.4614 97H36.2607L36.8301 95.201H39.5908L40.1602 97ZM37.2544 93.863L38.189 90.925H38.2319L39.1665 93.863H37.2544Z" fill="black"/>
<path d="M48.147 97.086C50.0645 97.086 51.0796 96.092 51.0796 94.653C51.0796 92.95 49.6616 92.623 48.4692 92.359C47.6045 92.161 46.8579 91.994 46.8579 91.35C46.8579 90.834 47.2661 90.522 47.959 90.522C48.6787 90.522 49.1729 90.872 49.189 91.624H50.7788C50.7627 89.765 49.1353 89.298 47.9375 89.298C46.3423 89.298 45.2305 90.109 45.2305 91.575C45.2305 93.079 46.4712 93.423 47.5938 93.691C48.5337 93.912 49.4038 94.089 49.4038 94.868C49.4038 95.448 48.9419 95.77 48.1953 95.77C47.395 95.77 46.772 95.394 46.7397 94.438H45.1016C45.1016 96.522 46.6968 97.086 48.147 97.086Z" fill="black"/>
<path d="M55.5215 97.107C57.5088 97.107 58.8408 96.055 58.9858 94.003H57.3154C57.2349 95.077 56.5796 95.689 55.5215 95.689C54.2217 95.689 53.5825 94.728 53.5825 93.203C53.5825 91.683 54.2217 90.721 55.5215 90.721C56.5796 90.721 57.2349 91.333 57.3154 92.408H58.9858C58.8408 90.356 57.5088 89.298 55.5215 89.298C53.2925 89.298 51.9282 90.673 51.9282 93.203C51.9282 95.738 53.2925 97.107 55.5215 97.107Z" fill="black"/>
<path d="M66.2529 95.088C66.1025 94.234 65.8125 93.697 65.1089 93.477C66.0273 93.246 66.4785 92.698 66.4785 91.65C66.4785 90.249 65.5493 89.411 63.75 89.411H60.2319V97.011H61.8916V93.847H62.5576C64.1743 93.847 64.416 94.067 64.604 95.222L64.8994 97H66.5913L66.2529 95.088ZM61.9023 90.818H63.7446C64.4644 90.818 64.8135 91.146 64.8135 91.688C64.8135 92.198 64.4966 92.569 63.8037 92.569H61.9023V90.818Z" fill="black"/>
<path d="M67.9126 97H69.5776V89.411H67.9126V97Z" fill="black"/>
<path d="M71.3071 97H72.9668V94.39H75.1475C76.7856 94.39 77.7578 93.471 77.7578 91.946C77.7578 90.42 76.791 89.411 75.1475 89.411H71.3071V97ZM72.9668 92.982V90.818H74.8789C75.7275 90.818 76.1035 91.205 76.1035 91.897C76.1035 92.574 75.7437 92.982 74.8789 92.982H72.9668Z" fill="black"/>
<path d="M80.4434 97H82.1084V90.812H84.3857V89.411H78.1768V90.812H80.4434V97Z" fill="black"/>
<path fill-rule="evenodd" clip-rule="evenodd" d="M75 25H25V75H75V25ZM41.973 64.468L38.1469 66.7836C39.2545 69.133 41.4361 71.0793 45.1949 71.0793C49.357 71.0793 52.2098 68.8641 52.2098 63.9975V47.9549H47.5111V63.9311C47.5111 66.2803 46.5375 66.8842 44.9935 66.8842C43.3828 66.8842 42.7113 65.7768 41.973 64.468ZM58.5877 64.0651L54.7619 66.2801C56.1379 68.9989 58.957 71.0799 63.3201 71.0799C67.784 71.0799 71.1066 68.7643 71.1066 64.535C71.1066 60.6084 68.858 58.8633 64.8638 57.1514L63.6892 56.6481C61.6756 55.7754 60.8029 55.2045 60.8029 53.7949C60.8029 52.6539 61.6756 51.7813 63.0517 51.7813C64.3943 51.7813 65.2666 52.3518 66.0723 53.7949L69.7308 51.4453C68.1871 48.7268 66.039 47.6862 63.0519 47.6862C58.8564 47.6862 56.1715 50.3713 56.1715 53.8955C56.1715 57.7217 58.4201 59.5342 61.8101 60.977L62.9846 61.4809C65.1326 62.4203 66.408 62.991 66.408 64.602C66.408 65.9446 65.1666 66.918 63.2195 66.918C60.9039 66.918 59.5949 65.7098 58.5877 64.0651Z" fill="#FFDE2E"/>
</svg>
