<svg width="59" height="77" viewBox="0 0 59 77" fill="none" xmlns="http://www.w3.org/2000/svg">
<path d="M28.7734 0.2225C28.7501 0.1275 28.7259 0.0529 28.7008 0C28.6252 1.1844 28.5876 1.6288 27.4563 2.8132C25.7219 4.1456 16.7485 11.5111 16.0323 26.5012C15.3291 40.476 26.3256 48.8215 27.8179 49.8875C28.8775 52.3256 28.7761 56.4814 28.7761 56.4814L30.3217 57C30.3217 57 30.0202 52.9286 30.4728 51.0038C30.5995 50.4046 30.9055 49.8814 31.2695 49.4436C31.5361 49.2599 32.2334 48.7578 33.1526 47.9324C33.1994 47.9073 33.2254 47.8946 33.2254 47.8946L33.2234 47.8685C36.8837 44.5558 43.894 36.2365 41.5197 22.6145C39.1565 12.3894 34.3095 7.4838 31.8712 5.0161C31.1587 4.295 30.6518 3.782 30.4728 3.4053C29.6058 2.2209 28.776 0.1485 28.776 0.1485L28.7774 0.2391C28.7761 0.233499 28.7747 0.228 28.7734 0.2225Z" fill="#04C500"/>
<path class="letter" d="M0.366699 76H2.0317V70.076H2.0854L4.0405 76H5.5552L7.521 70.076H7.5693V76H9.229V68.411H6.667L4.8032 74.045L2.9341 68.411H0.366699V76Z" fill="black"/>
<path class="letter" d="M14.1006 76.107C16.3188 76.107 17.7207 74.738 17.7207 72.203C17.7207 69.673 16.3188 68.298 14.1006 68.298C11.8716 68.298 10.5073 69.673 10.5073 72.203C10.5073 74.738 11.8716 76.107 14.1006 76.107ZM14.1006 74.689C12.8008 74.689 12.1616 73.728 12.1616 72.203C12.1616 70.683 12.8008 69.721 14.1006 69.721C15.3896 69.721 16.0664 70.683 16.0664 72.203C16.0664 73.728 15.3896 74.689 14.1006 74.689Z" fill="black"/>
<path class="letter" d="M18.9937 76H20.6587V70.865H20.7178L23.9351 76H25.7129V68.411H24.0479V73.567H23.9995L20.75 68.411H18.9937V76Z" fill="black"/>
<path class="letter" d="M30.7456 73.073H32.4429C32.3408 73.895 31.8198 74.657 30.6274 74.657C29.188 74.657 28.6616 73.535 28.6616 72.165C28.6616 70.774 29.2148 69.678 30.6543 69.678C31.6104 69.678 32.314 70.151 32.3354 71.042H34.0273C34.0005 69.189 32.4375 68.292 30.6382 68.292C28.2964 68.292 26.9751 69.802 26.9751 72.224C26.9751 74.609 28.2534 76.107 30.3965 76.107C31.3848 76.107 32.2119 75.742 32.6416 75.071L32.647 76H34.0273V71.762H30.7456V73.073Z" fill="black"/>
<path class="letter" d="M38.7002 76.107C40.9185 76.107 42.3203 74.738 42.3203 72.203C42.3203 69.673 40.9185 68.298 38.7002 68.298C36.4712 68.298 35.1069 69.673 35.1069 72.203C35.1069 74.738 36.4712 76.107 38.7002 76.107ZM38.7002 74.689C37.4004 74.689 36.7612 73.728 36.7612 72.203C36.7612 70.683 37.4004 69.721 38.7002 69.721C39.9893 69.721 40.666 70.683 40.666 72.203C40.666 73.728 39.9893 74.689 38.7002 74.689Z" fill="black"/>
<path class="letter" d="M43.5933 76H46.5044C49.1309 76 50.3179 74.63 50.3179 72.235C50.3179 69.834 49.1846 68.411 46.5151 68.411H43.5933V76ZM45.2583 74.577V69.829H46.4937C48.1104 69.829 48.6689 70.693 48.6689 72.181C48.6689 73.728 48.062 74.577 46.3701 74.577H45.2583Z" fill="black"/>
<path class="letter" d="M51.5854 76H55.5869C57.2197 76 58.1382 75.184 58.1382 73.895C58.1382 72.788 57.4668 72.192 56.6934 72.047V72.009C57.2251 71.8 57.7461 71.327 57.7461 70.419C57.7461 69.2 56.833 68.411 55.2754 68.411H51.5854V76ZM53.2505 71.488V69.823H55.082C55.7588 69.823 56.0488 70.092 56.0488 70.624C56.0488 71.166 55.7588 71.488 55.0444 71.488H53.2505ZM53.2505 74.582V72.772H55.4204C56.0811 72.772 56.4624 73.094 56.4624 73.685C56.4624 74.201 56.1724 74.582 55.4204 74.582H53.2505Z" fill="black"/>
</svg>
