<svg width="100" height="129" viewBox="0 0 100 129" fill="none" xmlns="http://www.w3.org/2000/svg">
<path d="M49.7734 21.2225C49.7501 21.1275 49.7259 21.0529 49.7008 21C49.6252 22.1844 49.5876 22.6288 48.4563 23.8132C46.7219 25.1456 37.7485 32.5111 37.0323 47.5012C36.3291 61.476 47.3256 69.8215 48.8179 70.8875C49.8775 73.3256 49.7761 77.4814 49.7761 77.4814L51.3217 78C51.3217 78 51.0202 73.9286 51.4728 72.0038C51.5995 71.4046 51.9055 70.8814 52.2695 70.4436C52.5361 70.2599 53.2334 69.7578 54.1526 68.9324C54.1994 68.9073 54.2254 68.8946 54.2254 68.8946L54.2234 68.8685C57.8837 65.5558 64.894 57.2365 62.5197 43.6145C60.1565 33.3894 55.3095 28.4838 52.8712 26.0161C52.1587 25.295 51.6518 24.782 51.4728 24.4053C50.6058 23.2209 49.776 21.1485 49.776 21.1485L49.7774 21.2391C49.7761 21.2335 49.7747 21.228 49.7734 21.2225Z" fill="#04C500"/>
<path d="M21.3667 97H23.0317V91.076H23.0854L25.0405 97H26.5552L28.521 91.076H28.5693V97H30.229V89.411H27.667L25.8032 95.045L23.9341 89.411H21.3667V97Z" fill="black"/>
<path d="M35.1006 97.107C37.3188 97.107 38.7207 95.738 38.7207 93.203C38.7207 90.673 37.3188 89.298 35.1006 89.298C32.8716 89.298 31.5073 90.673 31.5073 93.203C31.5073 95.738 32.8716 97.107 35.1006 97.107ZM35.1006 95.689C33.8008 95.689 33.1616 94.728 33.1616 93.203C33.1616 91.683 33.8008 90.721 35.1006 90.721C36.3896 90.721 37.0664 91.683 37.0664 93.203C37.0664 94.728 36.3896 95.689 35.1006 95.689Z" fill="black"/>
<path d="M39.9937 97H41.6587V91.865H41.7178L44.9351 97H46.7129V89.411H45.0479V94.567H44.9995L41.75 89.411H39.9937V97Z" fill="black"/>
<path d="M51.7456 94.073H53.4429C53.3408 94.895 52.8198 95.657 51.6274 95.657C50.188 95.657 49.6616 94.535 49.6616 93.165C49.6616 91.774 50.2148 90.678 51.6543 90.678C52.6104 90.678 53.314 91.151 53.3354 92.042H55.0273C55.0005 90.189 53.4375 89.292 51.6382 89.292C49.2964 89.292 47.9751 90.802 47.9751 93.224C47.9751 95.609 49.2534 97.107 51.3965 97.107C52.3848 97.107 53.2119 96.742 53.6416 96.071L53.647 97H55.0273V92.762H51.7456V94.073Z" fill="black"/>
<path d="M59.7002 97.107C61.9185 97.107 63.3203 95.738 63.3203 93.203C63.3203 90.673 61.9185 89.298 59.7002 89.298C57.4712 89.298 56.1069 90.673 56.1069 93.203C56.1069 95.738 57.4712 97.107 59.7002 97.107ZM59.7002 95.689C58.4004 95.689 57.7612 94.728 57.7612 93.203C57.7612 91.683 58.4004 90.721 59.7002 90.721C60.9893 90.721 61.666 91.683 61.666 93.203C61.666 94.728 60.9893 95.689 59.7002 95.689Z" fill="black"/>
<path d="M64.5933 97H67.5044C70.1309 97 71.3179 95.63 71.3179 93.235C71.3179 90.834 70.1846 89.411 67.5151 89.411H64.5933V97ZM66.2583 95.577V90.829H67.4937C69.1104 90.829 69.6689 91.693 69.6689 93.181C69.6689 94.728 69.062 95.577 67.3701 95.577H66.2583Z" fill="black"/>
<path d="M72.5854 97H76.5869C78.2197 97 79.1382 96.184 79.1382 94.895C79.1382 93.788 78.4668 93.192 77.6934 93.047V93.009C78.2251 92.8 78.7461 92.327 78.7461 91.419C78.7461 90.2 77.833 89.411 76.2754 89.411H72.5854V97ZM74.2505 92.488V90.823H76.082C76.7588 90.823 77.0488 91.092 77.0488 91.624C77.0488 92.166 76.7588 92.488 76.0444 92.488H74.2505ZM74.2505 95.582V93.772H76.4204C77.0811 93.772 77.4624 94.094 77.4624 94.685C77.4624 95.201 77.1724 95.582 76.4204 95.582H74.2505Z" fill="black"/>
</svg>
