<svg width="141" height="25" viewBox="0 -5 141 45" fill="none" xmlns="http://www.w3.org/2000/svg">
<g filter="url(#filter0_d)">
<path d="M129.351 38.9766V34.9482L131.577 34.9775C131.968 34.9775 132.344 34.9141 132.705 34.7871C133.066 34.6602 133.398 34.4844 133.701 34.2598C134.014 34.0352 134.287 33.7666 134.521 33.4541C134.756 33.1514 134.946 32.8193 135.093 32.458C134.653 32.6436 134.204 32.8291 133.745 33.0146C133.296 33.2002 132.842 33.293 132.383 33.293C131.416 33.293 130.508 33.1221 129.658 32.7803C128.809 32.4385 128.062 31.9551 127.417 31.3301C126.782 30.6953 126.279 29.9287 125.908 29.0303C125.547 28.1221 125.366 27.1064 125.366 25.9834V17.3115H129.351V25.9834C129.351 26.54 129.429 27.0283 129.585 27.4482C129.751 27.8584 129.971 28.2051 130.244 28.4883C130.518 28.7617 130.835 28.9668 131.196 29.1035C131.567 29.2402 131.963 29.3086 132.383 29.3086C132.793 29.3086 133.179 29.2158 133.54 29.0303C133.911 28.835 134.233 28.5811 134.507 28.2686C134.78 27.9561 134.995 27.6045 135.151 27.2139C135.308 26.8135 135.386 26.4033 135.386 25.9834V17.3115H139.414V31.0225C139.404 32.126 139.189 33.1611 138.77 34.1279C138.35 35.0947 137.773 35.9395 137.041 36.6621C136.318 37.3848 135.474 37.9561 134.507 38.376C133.54 38.7959 132.505 39.0059 131.401 39.0059L129.351 38.9766Z" fill="white"/>
<path d="M122.812 33C121.846 33 120.938 32.8193 120.088 32.458C119.238 32.0869 118.491 31.584 117.847 30.9492C117.212 30.3047 116.709 29.5576 116.338 28.708C115.977 27.8584 115.796 26.9502 115.796 25.9834V21.3252H113.848V17.3408H115.796V11.0713H119.78V17.3408H125.845V21.3252H119.78V25.9834C119.78 26.4033 119.858 26.7988 120.015 27.1699C120.171 27.5312 120.386 27.8486 120.659 28.1221C120.933 28.3955 121.255 28.6152 121.626 28.7812C121.997 28.9375 122.393 29.0156 122.812 29.0156H125.845V33H122.812Z" fill="white"/>
<circle cx="106" cy="24" r="7" stroke="white" stroke-width="2"/>
<path d="M96.9473 22.2456C96.9473 23.6958 96.7568 25.0947 96.376 26.4424C96.0098 27.7754 95.4824 29.0278 94.7939 30.1997C94.1055 31.3569 93.2852 32.4189 92.333 33.3857C91.3809 34.3379 90.3188 35.1582 89.147 35.8467C87.9751 36.5352 86.7153 37.0698 85.3677 37.4507C84.0347 37.8169 82.6431 38 81.1929 38H71.7007V6.49121H81.1929C82.6431 6.49121 84.0347 6.68164 85.3677 7.0625C86.7153 7.42871 87.9751 7.95605 89.147 8.64453C90.3188 9.33301 91.3809 10.1606 92.333 11.1274C93.2852 12.0796 94.1055 13.1416 94.7939 14.3135C95.4824 15.4707 96.0098 16.7231 96.376 18.0708C96.7568 19.4038 96.9473 20.7954 96.9473 22.2456ZM90.6411 22.2456C90.6411 20.9419 90.3921 19.7188 89.894 18.5762C89.4106 17.4336 88.7368 16.4375 87.8726 15.5879C87.0229 14.7236 86.0195 14.0425 84.8623 13.5444C83.7197 13.0464 82.4966 12.7974 81.1929 12.7974H78.0508V31.6938H81.1929C82.4966 31.6938 83.7197 31.4521 84.8623 30.9688C86.0195 30.4707 87.0229 29.7969 87.8726 28.9473C88.7368 28.083 89.4106 27.0796 89.894 25.937C90.3921 24.7798 90.6411 23.5493 90.6411 22.2456Z" fill="white"/>
<path d="M56.585 33H52.5859V17.3115H53.5527L54.8711 18.835C55.5156 18.249 56.2432 17.7998 57.0537 17.4873C57.874 17.165 58.7285 17.0039 59.6172 17.0039C60.5742 17.0039 61.4775 17.1895 62.3271 17.5605C63.1768 17.9219 63.9189 18.4248 64.5537 19.0693C65.1885 19.7041 65.6865 20.4512 66.0479 21.3105C66.4189 22.1602 66.6045 23.0684 66.6045 24.0352V33H62.6055V24.0352C62.6055 23.625 62.5273 23.2393 62.3711 22.8779C62.2148 22.5068 62 22.1846 61.7266 21.9111C61.4531 21.6377 61.1357 21.4229 60.7744 21.2666C60.4131 21.1104 60.0273 21.0322 59.6172 21.0322C59.1973 21.0322 58.8018 21.1104 58.4307 21.2666C58.0596 21.4229 57.7373 21.6377 57.4639 21.9111C57.1904 22.1846 56.9756 22.5068 56.8193 22.8779C56.6631 23.2393 56.585 23.625 56.585 24.0352V33Z" fill="white"/>
<path d="M41.085 33H37.0859V11.0713H41.085V18C41.5635 17.6387 42.0566 17.3848 42.5645 17.2383C43.0723 17.082 43.5898 17.0039 44.1172 17.0039C45.084 17.0039 45.9922 17.1895 46.8418 17.5605C47.6914 17.9219 48.4287 18.4248 49.0537 19.0693C49.6885 19.7041 50.1865 20.4512 50.5479 21.3105C50.9189 22.1602 51.1045 23.0684 51.1045 24.0352V33H47.0762V24.0352H47.1055C47.1055 23.625 47.0273 23.2393 46.8711 22.8779C46.7148 22.5068 46.5 22.1846 46.2266 21.9111C45.9531 21.6377 45.6357 21.4229 45.2744 21.2666C44.9131 21.1104 44.5273 21.0322 44.1172 21.0322C43.6973 21.0322 43.3018 21.1104 42.9307 21.2666C42.5596 21.4229 42.2373 21.6377 41.9639 21.9111C41.6904 22.1846 41.4756 22.5068 41.3193 22.8779C41.1631 23.2393 41.085 23.625 41.085 24.0352V33Z" fill="white"/>
<circle cx="28" cy="25" r="7" stroke="white" stroke-width="2"/>
<path d="M19.3115 25.4097C19.3115 27.1528 18.9819 28.7935 18.3228 30.3315C17.6636 31.855 16.7627 33.188 15.6201 34.3306C14.4922 35.4585 13.1592 36.3521 11.6211 37.0112C10.0977 37.6704 8.46436 38 6.72119 38C5.6665 38 4.61182 37.8682 3.55713 37.6045V30.8369C4.02588 31.1152 4.53125 31.3276 5.07324 31.4741C5.61523 31.6206 6.16455 31.6938 6.72119 31.6938C7.58545 31.6938 8.39844 31.5327 9.16016 31.2104C9.93652 30.8735 10.6104 30.4194 11.1816 29.8481C11.7529 29.2769 12.1997 28.6104 12.522 27.8486C12.8589 27.0869 13.0273 26.2739 13.0273 25.4097V6.49121H19.3115V25.4097Z" fill="white"/>
</g>
<defs>
<filter id="filter0_d" x="-2" y="-1" width="144" height="48" filterUnits="userSpaceOnUse" color-interpolation-filters="sRGB">
<feFlood flood-opacity="0" result="BackgroundImageFix"/>
<feColorMatrix in="SourceAlpha" type="matrix" values="0 0 0 0 0 0 0 0 0 0 0 0 0 0 0 0 0 0 127 0" result="hardAlpha"/>
<feOffset dx="-1" dy="1"/>
<feGaussianBlur stdDeviation="1"/>
<feColorMatrix type="matrix" values="0 0 0 0 0 0 0 0 0 0 0 0 0 0 0 0 0 0 0.25 0"/>
<feBlend mode="normal" in2="BackgroundImageFix" result="effect1_dropShadow"/>
<feBlend mode="normal" in="SourceGraphic" in2="effect1_dropShadow" result="shape"/>
</filter>
</defs>
</svg>
