<svg width="100" height="129" viewBox="0 0 100 129" fill="none" xmlns="http://www.w3.org/2000/svg">
<path d="M28.1611 97H29.8262V91.865H29.8853L33.1025 97H34.8804V89.411H33.2153V94.567H33.167L29.9175 89.411H28.1611V97Z" fill="black"/>
<path d="M39.7466 97.107C41.9648 97.107 43.3667 95.738 43.3667 93.203C43.3667 90.673 41.9648 89.298 39.7466 89.298C37.5176 89.298 36.1533 90.673 36.1533 93.203C36.1533 95.738 37.5176 97.107 39.7466 97.107ZM39.7466 95.689C38.4468 95.689 37.8076 94.728 37.8076 93.203C37.8076 91.683 38.4468 90.721 39.7466 90.721C41.0356 90.721 41.7124 91.683 41.7124 93.203C41.7124 94.728 41.0356 95.689 39.7466 95.689Z" fill="black"/>
<path d="M44.6396 97H47.5508C50.1772 97 51.3643 95.63 51.3643 93.235C51.3643 90.834 50.231 89.411 47.5615 89.411H44.6396V97ZM46.3047 95.577V90.829H47.54C49.1567 90.829 49.7153 91.693 49.7153 93.181C49.7153 94.728 49.1084 95.577 47.4165 95.577H46.3047Z" fill="black"/>
<path d="M52.6318 97H58.4702V95.593H54.2969V93.901H57.9277V92.494H54.2969V90.818H58.2124V89.411H52.6318V97Z" fill="black"/>
<path d="M61.6821 97H62.7939C64.3569 97 65.2109 96.361 65.2109 94.835V89.411H63.5459V94.508C63.5459 95.362 63.2129 95.593 62.4395 95.593H61.6821V97Z" fill="black"/>
<path d="M69.4004 97.086C71.3179 97.086 72.333 96.092 72.333 94.653C72.333 92.95 70.915 92.623 69.7227 92.359C68.8579 92.161 68.1113 91.994 68.1113 91.35C68.1113 90.834 68.5195 90.522 69.2124 90.522C69.9321 90.522 70.4263 90.872 70.4424 91.624H72.0322C72.0161 89.765 70.3887 89.298 69.1909 89.298C67.5957 89.298 66.4839 90.109 66.4839 91.575C66.4839 93.079 67.7246 93.423 68.8472 93.691C69.7871 93.912 70.6572 94.089 70.6572 94.868C70.6572 95.448 70.1953 95.77 69.4487 95.77C68.6484 95.77 68.0254 95.394 67.9932 94.438H66.355C66.355 96.522 67.9502 97.086 69.4004 97.086Z" fill="black"/>
<path d="M52.2548 22.5974C50.8898 21.7991 49.1103 21.8026 47.7441 22.5974C46.0601 23.5639 44.3762 24.5304 42.6923 25.497C37.5338 28.4579 32.3751 31.4188 27.2157 34.3781C25.884 35.1067 24.9858 36.594 25.0002 38.1377V61.8656C24.9906 63.4394 25.935 64.941 27.3011 65.6596C28.0426 66.0699 28.7763 66.496 29.5099 66.922C30.7208 67.6252 31.9315 68.3283 33.1778 68.9604C35.4894 70.1418 38.3816 70.403 40.7215 69.1711C42.6209 68.1499 43.4645 65.879 43.4622 63.792C43.4718 58.8461 43.4702 53.9001 43.4686 48.9541C43.4677 46.0691 43.4668 43.1842 43.4681 40.2993C43.5132 39.9512 43.262 39.5793 42.897 39.5876C42.0226 39.5733 41.147 39.5793 40.2725 39.5853C39.9421 39.5527 39.6196 39.8381 39.6446 40.1836C39.6384 44.2589 39.6393 48.3349 39.6403 52.4111C39.6411 56.1168 39.642 59.8227 39.6375 63.5283C39.6565 64.6047 38.9573 65.6393 37.9599 66.0029C36.8295 66.4329 35.5699 66.0994 34.544 65.5382C33.9277 65.1844 33.3112 64.8311 32.6948 64.4777C31.4897 63.7871 30.2847 63.0964 29.0807 62.4025C28.9601 62.3443 28.8598 62.25 28.7935 62.1323C28.7272 62.0145 28.698 61.8789 28.7098 61.7437C28.7098 59.1342 28.71 56.5246 28.7101 53.9151C28.7104 48.6962 28.7106 43.4775 28.7098 38.2593C28.6767 37.9438 28.8637 37.6596 29.1423 37.5308C32.937 35.3585 36.7307 33.1832 40.5244 31.0079C43.5487 29.2737 46.5732 27.5395 49.5983 25.8067C49.7167 25.7245 49.8568 25.6806 50.0002 25.6809C50.1436 25.6811 50.2835 25.7254 50.4017 25.8079C53.4136 27.5326 56.4251 29.2582 59.4366 30.9839C63.244 33.1657 67.0515 35.3474 70.86 37.5274C71.1397 37.656 71.3186 37.945 71.2902 38.2593C71.2898 41.1067 71.29 43.9542 71.2901 46.8017C71.2905 51.7821 71.2908 56.7626 71.2878 61.7425C71.308 62.0195 71.1705 62.288 70.9216 62.4096C67.4085 64.4287 63.8928 66.4433 60.377 68.4581C57.1721 70.2946 53.9672 72.1312 50.7642 73.9711C50.7229 73.9945 50.6806 74.0198 50.6374 74.0455C50.3453 74.2198 50.0145 74.4173 49.6872 74.2252C48.6787 73.6451 47.6773 73.052 46.6759 72.459C45.929 72.0167 45.1822 71.5744 44.4326 71.1376C44.2418 71.0137 43.9989 70.9607 43.7999 71.0991C43.7522 71.1252 43.7046 71.1514 43.6569 71.1776C42.9174 71.5835 42.1744 71.9914 41.3697 72.2515C41.2674 72.2936 41.1587 72.3277 41.0493 72.3619C40.7524 72.4548 40.4509 72.5492 40.2596 72.8114C40.4939 73.1383 40.8387 73.3332 41.1802 73.5262C41.2704 73.5771 41.3602 73.6279 41.4478 73.6809C42.3832 74.2315 43.3193 74.781 44.2554 75.3305C45.3731 75.9867 46.4909 76.6429 47.6077 77.3009C48.9586 78.1776 50.7738 78.2401 52.1682 77.4297C55.4116 75.5709 58.6545 73.711 61.8975 71.8511C65.4972 69.7865 69.097 67.7219 72.6978 65.6586C74.0603 64.936 75.0095 63.4404 74.9999 61.8654V38.1377C75.013 36.6253 74.1492 35.1645 72.8577 34.4252C68.8365 32.114 64.8141 29.8058 60.7917 27.4976C57.946 25.8646 55.1002 24.2315 52.2548 22.5974Z" fill="#68EB3A"/>
<path d="M62.5803 40.4125C59.8944 38.918 56.6991 38.8384 53.7143 39.0337C51.5581 39.2553 49.2902 39.8742 47.7191 41.4817C46.1078 43.0978 45.7571 45.7074 46.5224 47.8171C47.0709 49.3078 48.4514 50.2773 49.8791 50.79C51.7182 51.4652 53.6497 51.674 55.5818 51.8828C57.3441 52.0733 59.107 52.2638 60.8009 52.8084C61.4928 53.047 62.2985 53.4117 62.5105 54.1946C62.7061 55.1218 62.4916 56.1996 61.7677 56.8438C60.4668 57.9147 58.7026 57.9908 57.09 58.0605C57.0018 58.0643 56.9141 58.0681 56.8269 58.072C56.6565 58.0693 56.4847 58.0673 56.3119 58.0654C54.4271 58.0441 52.4246 58.0215 50.801 56.9569C49.8826 56.3223 49.4868 55.1988 49.3259 54.1284C49.308 53.7947 49.0498 53.4887 48.7014 53.5141C47.8294 53.5033 46.9573 53.5057 46.0852 53.5129C45.7808 53.4863 45.4645 53.7115 45.4478 54.0344C45.378 55.9465 46.0817 57.9276 47.5224 59.1991C49.2073 60.7105 51.4786 61.2932 53.6611 61.5461C55.9822 61.7761 58.3542 61.7629 60.6398 61.245C62.3578 60.8381 64.0804 60.089 65.2631 58.7126C66.7216 57.0401 67.0083 54.5498 66.3542 52.4664C65.8542 50.9119 64.4252 49.9147 62.9644 49.4017C60.9779 48.6933 58.9017 48.4138 56.8245 48.1343C55.2121 47.9173 53.5992 47.7002 52.0273 47.2824C52.0006 47.2738 51.9737 47.2653 51.9465 47.2566C51.3385 47.0632 50.6278 46.837 50.3614 46.1938C50.0663 45.258 50.3175 44.096 51.1444 43.5204C52.2215 42.7605 53.5887 42.6487 54.8602 42.5801C54.9056 42.5796 54.9512 42.5791 54.9968 42.5787C56.6983 42.5615 58.4954 42.5434 60.0508 43.335C61.0913 43.8768 61.6941 44.9896 61.943 46.113C61.9891 46.4431 62.2026 46.7874 62.5699 46.773C63.1625 46.7853 63.7551 46.783 64.3477 46.7807C64.6212 46.7797 64.8947 46.7786 65.1681 46.779C65.4656 46.8007 65.7914 46.626 65.8495 46.3093C65.8128 43.9612 64.6599 41.5577 62.5803 40.4125Z" fill="#68EB3A"/>
</svg>
