<svg width="50" height="73" viewBox="0 0 50 73" fill="none" xmlns="http://www.w3.org/2000/svg">
<path class="letter" d="M2.84421 72H4.50391V69.39H6.68461C8.32281 69.39 9.29491 68.471 9.29491 66.946C9.29491 65.42 8.32811 64.411 6.68461 64.411H2.84421V72ZM4.50391 67.982V65.818H6.41601C7.26461 65.818 7.64061 66.205 7.64061 66.897C7.64061 67.574 7.28081 67.982 6.41601 67.982H4.50391Z" fill="black"/>
<path class="letter" d="M12.0449 72H13.71V69.046L16.5566 64.411H14.6821L12.9097 67.59L11.0728 64.411H9.1982L12.0449 69.046V72Z" fill="black"/>
<path class="letter" d="M19.0166 72H20.6816V65.812H22.959V64.411H16.75V65.812H19.0166V72Z" fill="black"/>
<path class="letter" d="M23.9849 72H25.6499V68.896H29.0015V72H30.6665V64.411H29.0015V67.499H25.6499V64.411H23.9849V72Z" fill="black"/>
<path class="letter" d="M35.5381 72.107C37.7563 72.107 39.1582 70.738 39.1582 68.203C39.1582 65.673 37.7563 64.298 35.5381 64.298C33.3091 64.298 31.9448 65.673 31.9448 68.203C31.9448 70.738 33.3091 72.107 35.5381 72.107ZM35.5381 70.689C34.2383 70.689 33.5991 69.728 33.5991 68.203C33.5991 66.683 34.2383 65.721 35.5381 65.721C36.8271 65.721 37.5039 66.683 37.5039 68.203C37.5039 69.728 36.8271 70.689 35.5381 70.689Z" fill="black"/>
<path class="letter" d="M40.4312 72H42.0962V66.865H42.1553L45.3726 72H47.1504V64.411H45.4854V69.567H45.437L42.1875 64.411H40.4312V72Z" fill="black"/>
<path fill-rule="evenodd" clip-rule="evenodd" d="M12.9193 5.5333C12.9193 5.5333 12.1268 0 24.8199 0C38.0852 0 37.0601 6.6714 37.0601 6.6714V17.695C37.0601 24.3621 30.3103 24.2525 30.3103 24.2525H18.2966C11.0922 24.2525 11.3203 31.3789 11.3203 31.3789V37.3532H7.0894C7.0894 37.3532 0 37.8098 0 24.9352C0 12.061 8.1224 12.987 8.1224 12.987H25.0463V11.2659H12.9334L12.9193 5.5333ZM18.9751 4.0213C18.7106 3.9113 18.4271 3.8548 18.1409 3.8551C17.8547 3.8548 17.5712 3.9113 17.3067 4.0213C17.0422 4.1313 16.8019 4.2926 16.5995 4.4961C16.3971 4.6995 16.2366 4.9411 16.1272 5.207C16.0177 5.4729 15.9616 5.7578 15.9618 6.0456C15.9616 6.3333 16.0177 6.6182 16.1272 6.8841C16.2366 7.15 16.3971 7.3916 16.5995 7.595C16.8019 7.7985 17.0422 7.9598 17.3067 8.0698C17.5712 8.1798 17.8547 8.2363 18.1409 8.236C18.4271 8.2363 18.7106 8.1798 18.9751 8.0698C19.2396 7.9598 19.4799 7.7985 19.6823 7.595C19.8847 7.3916 20.0452 7.15 20.1546 6.8841C20.2641 6.6182 20.3203 6.3333 20.32 6.0456C20.3203 5.7578 20.2641 5.4729 20.1546 5.207C20.0452 4.9411 19.8847 4.6995 19.6823 4.4961C19.4799 4.2926 19.2396 4.1313 18.9751 4.0213Z" fill="#0076E3"/>
<path fill-rule="evenodd" clip-rule="evenodd" d="M37.0809 44.4667C37.0809 44.4667 37.8734 50 25.1803 50C11.9152 50 12.9399 43.3288 12.9399 43.3288V32.3049C12.9399 25.6377 19.6897 25.7473 19.6897 25.7473H31.7034C38.9078 25.7473 38.6797 18.6208 38.6797 18.6208V12.6467H42.9106C42.9106 12.6467 50 12.1901 50 25.0645C50 37.9392 41.8776 37.0132 41.8776 37.0132H24.9537V38.7343H37.0668L37.0809 44.4667ZM31.0251 45.9791C31.2896 46.0891 31.5731 46.1456 31.8593 46.1453C32.1455 46.1456 32.429 46.0889 32.6935 45.9789C32.958 45.8689 33.1983 45.7076 33.4007 45.5041C33.6031 45.3006 33.7636 45.0591 33.873 44.7932C33.9825 44.5273 34.0386 44.2424 34.0384 43.9546C34.0386 43.6669 33.9825 43.3819 33.873 43.1161C33.7636 42.8502 33.6031 42.6086 33.4007 42.4051C33.1983 42.2017 32.958 42.0403 32.6935 41.9304C32.429 41.8204 32.1455 41.7639 31.8593 41.7641C31.573 41.7639 31.2895 41.8204 31.025 41.9304C30.7605 42.0404 30.5202 42.2017 30.3178 42.4052C30.1154 42.6087 29.9549 42.8503 29.8455 43.1162C29.7361 43.3821 29.6799 43.6671 29.6802 43.9548C29.6799 44.2426 29.7361 44.5275 29.8455 44.7934C29.955 45.0593 30.1155 45.3008 30.3179 45.5043C30.5203 45.7078 30.7606 45.8691 31.0251 45.9791Z" fill="#FFE600"/>
</svg>
