<svg width="56" height="73" viewBox="0 0 56 73" fill="none" xmlns="http://www.w3.org/2000/svg">
<path class="letter" d="M16.6938 70.088C16.5435 69.234 16.2534 68.697 15.5498 68.477C16.4683 68.246 16.9194 67.698 16.9194 66.65C16.9194 65.249 15.9902 64.411 14.1909 64.411H10.6729V72.011H12.3325V68.847H12.9985C14.6152 68.847 14.8569 69.067 15.0449 70.222L15.3403 72H17.0322L16.6938 70.088ZM12.3433 65.818H14.1855C14.9053 65.818 15.2544 66.146 15.2544 66.688C15.2544 67.198 14.9375 67.569 14.2446 67.569H12.3433V65.818Z" fill="black"/>
<path class="letter" d="M18.3535 72H24.1919V70.593H20.0186V68.901H23.6494V67.494H20.0186V65.818H23.9341V64.411H18.3535V72Z" fill="black"/>
<path class="letter" d="M30.4009 72H32.2002L29.5576 64.411H27.3447L24.7021 72H26.5015L27.0708 70.201H29.8315L30.4009 72ZM27.4951 68.863L28.4297 65.925H28.4727L29.4072 68.863H27.4951Z" fill="black"/>
<path class="letter" d="M36.0298 72.107C38.0171 72.107 39.3491 71.055 39.4941 69.003H37.8237C37.7432 70.077 37.0879 70.689 36.0298 70.689C34.73 70.689 34.0908 69.728 34.0908 68.203C34.0908 66.683 34.73 65.721 36.0298 65.721C37.0879 65.721 37.7432 66.333 37.8237 67.408H39.4941C39.3491 65.356 38.0171 64.298 36.0298 64.298C33.8008 64.298 32.4365 65.673 32.4365 68.203C32.4365 70.738 33.8008 72.107 36.0298 72.107Z" fill="black"/>
<path class="letter" d="M42.0776 72H43.7427V65.812H46.02V64.411H39.811V65.812H42.0776V72Z" fill="black"/>
<path d="M42.8429 30.9379C42.571 31.0273 42.292 31.1137 42.0076 31.1974C41.3781 29.2186 40.5285 27.1144 39.4892 24.9406C40.4812 22.8183 41.2978 20.7411 41.9096 18.7751C42.4183 18.9215 42.9122 19.0756 43.388 19.2384C47.9903 20.8115 50.7975 23.1378 50.7975 24.9301C50.7975 26.8394 47.7654 29.3181 42.8429 30.9379Z" fill="#24D8FF"/>
<path d="M40.8003 34.9573C41.298 37.4539 41.3691 39.7111 41.0394 41.4757C40.7431 43.0612 40.1475 44.1183 39.4111 44.5416C37.8437 45.4426 34.4918 44.2715 30.8774 41.1826C30.4629 40.8285 30.0454 40.4503 29.6268 40.0503C31.0281 38.5282 32.4286 36.7586 33.7954 34.7936C36.1998 34.5818 38.4712 34.2354 40.5312 33.7626C40.6324 34.1691 40.7226 34.5676 40.8003 34.9573Z" fill="#24D8FF"/>
<path d="M20.144 44.386C18.6128 44.923 17.3932 44.9383 16.6561 44.5163C15.0872 43.6179 14.4353 40.1491 15.3247 35.4967C15.4305 34.9469 15.5516 34.4001 15.6879 33.857C17.7249 34.3044 19.9798 34.6264 22.3899 34.8205C23.7657 36.7433 25.2067 38.5107 26.6589 40.0584C26.3503 40.3549 26.0344 40.6438 25.7114 40.9249C23.7818 42.6 21.848 43.7882 20.144 44.386Z" fill="#24D8FF"/>
<path d="M12.9703 30.9261C10.5452 30.103 8.54251 29.0333 7.16981 27.8661C5.93631 26.8169 5.31351 25.7754 5.31351 24.9301C5.31351 23.1319 8.01341 20.838 12.5164 19.2789C13.0816 19.084 13.6524 18.9057 14.2282 18.744C14.8506 20.7543 15.6669 22.8561 16.6521 24.9815C15.6542 27.1386 14.8262 29.2739 14.198 31.3077C13.7857 31.1905 13.3763 31.0633 12.9703 30.9261Z" fill="#24D8FF"/>
<path d="M15.3751 14.6706C14.4403 9.9269 15.061 6.3486 16.6231 5.4507C18.287 4.4942 21.966 5.85811 25.8437 9.27731C26.0915 9.49591 26.3405 9.7247 26.5898 9.9614C25.1451 11.5022 23.7173 13.2562 22.3534 15.1679C20.0144 15.3832 17.7753 15.729 15.7169 16.1921C15.5901 15.6878 15.4761 15.1807 15.3751 14.6706Z" fill="#24D8FF"/>
<path d="M36.8275 19.9311C36.3414 19.0971 35.8371 18.2736 35.3152 17.4612C36.9022 17.6601 38.4224 17.9246 39.8499 18.2483C39.4214 19.6124 38.8872 21.0388 38.2582 22.5011C37.7986 21.6351 37.3216 20.7782 36.8275 19.9311Z" fill="#24D8FF"/>
<path d="M28.0792 11.4692C29.0591 12.5233 30.0406 13.7006 31.0059 14.9777C29.0477 14.8858 27.0862 14.8854 25.1279 14.9764C26.0942 13.7111 27.084 12.5356 28.0792 11.4692Z" fill="#24D8FF"/>
<path d="M19.2748 19.9455C18.7869 20.7859 18.3189 21.6375 17.871 22.4996C17.2523 21.0423 16.723 19.6096 16.2907 18.226C17.7097 17.9106 19.2229 17.6529 20.7994 17.4573C20.2717 18.2747 19.7633 19.1044 19.2748 19.9455Z" fill="#24D8FF"/>
<path d="M20.8448 32.5536C19.2161 32.3731 17.68 32.1285 16.2614 31.8218C16.7005 30.4138 17.2415 28.9502 17.8734 27.4617C18.3232 28.3244 18.7933 29.1765 19.2834 30.0173C19.7835 30.8749 20.3041 31.7206 20.8448 32.5536Z" fill="#24D8FF"/>
<path d="M28.138 38.5402C27.131 37.4611 26.1267 36.2677 25.1458 34.984C26.0979 35.0211 27.0688 35.0399 28.0555 35.0399C29.0692 35.0399 30.0714 35.0174 31.0576 34.9737C30.0892 36.2808 29.1113 37.476 28.138 38.5402Z" fill="#24D8FF"/>
<path d="M38.2784 27.3858C38.9431 28.8905 39.5035 30.3462 39.9486 31.7305C38.5065 32.0572 36.9497 32.3204 35.3093 32.5158C35.835 31.6882 36.344 30.8503 36.8361 30.0026C37.3364 29.1411 37.8173 28.2686 38.2784 27.3858Z" fill="#24D8FF"/>
<path fill-rule="evenodd" clip-rule="evenodd" d="M34.9957 28.9487C34.2423 30.2483 33.4466 31.5233 32.6098 32.7715C31.1342 32.8762 29.6094 32.9302 28.0555 32.9302C26.5079 32.9302 25.0025 32.8824 23.5527 32.789C22.6942 31.5437 21.8834 30.2665 21.1221 28.9602C20.3644 27.6609 19.6566 26.3335 19.0004 24.9809C19.655 23.6278 20.3606 22.2997 21.1157 20.9993C21.8706 19.6986 22.675 18.4273 23.5271 17.1873C25.0062 17.0763 26.5227 17.0181 28.0557 17.0181C29.5955 17.0181 31.114 17.0767 32.5926 17.1886C33.4361 18.4267 34.2353 19.694 34.9888 20.9881C35.7466 22.2856 36.4616 23.6072 37.1328 24.9509C36.4685 26.3083 35.7555 27.6417 34.9957 28.9487ZM32.4965 24.9302C32.4965 22.4946 30.5083 20.52 28.0555 20.52C25.603 20.52 23.6146 22.4946 23.6146 24.9302C23.6146 27.366 25.603 29.3406 28.0555 29.3406C30.5083 29.3406 32.4965 27.366 32.4965 24.9302Z" fill="#24D8FF"/>
<path d="M39.3785 5.3879C41.0438 6.3418 41.6915 10.1881 40.6452 15.2322C40.5766 15.5607 40.502 15.8881 40.4215 16.214C38.3583 15.7412 36.1177 15.3893 33.7719 15.1707C32.4053 13.2383 30.9894 11.4812 29.568 9.96031C29.9405 9.60371 30.3218 9.2564 30.7116 8.9186C34.3833 5.7453 37.8149 4.4924 39.3785 5.3879Z" fill="#24D8FF"/>
<path fill-rule="evenodd" clip-rule="evenodd" d="M10.6403 35.2407C4.1297 33.0307 0 29.1101 0 24.9101C0 20.8243 4.3494 17.1948 10.6403 15.0167C9.336 8.39671 10.3561 3.0623 13.9314 1.0071C17.6395 -1.1245 22.7513 0.310504 28.0821 5.0107C33.206 0.582405 38.3689 -1.20379 41.9475 0.845505C45.6595 2.97121 46.8782 8.08301 45.4398 15.0628C51.8628 17.2586 56 20.8077 56 24.9101C56 29.1654 52.2068 32.5085 45.4255 34.7349C46.7615 41.4378 45.6485 47.032 41.9882 49.1362C38.427 51.1834 33.3236 49.4851 28.2738 45.1695C23.0933 49.6667 17.6353 51.1191 13.9717 49.0208C10.4074 46.9795 9.3402 41.7405 10.6403 35.2407ZM42.4788 16.7423C43.0166 16.8959 43.5504 17.0629 44.0798 17.2433C49.4511 19.0795 52.9221 21.956 52.9221 24.9301C52.9221 28.0319 49.2127 31.0647 43.5112 32.9405C43.2099 33.0397 42.9011 33.135 42.5864 33.2273C42.6986 33.6758 42.7988 34.1162 42.8846 34.5475C44.0102 40.1935 43.1435 44.8341 40.4758 46.3676C37.893 47.8524 33.7185 46.3938 29.4917 42.7819C29.0323 42.3883 28.584 41.9821 28.1474 41.5637C27.8007 41.8966 27.4545 42.2142 27.1096 42.5137C22.7459 46.3016 18.2646 47.8731 15.5946 46.3442C13.0095 44.8634 12.1971 40.5436 13.2373 35.1033C13.351 34.5121 13.4813 33.9241 13.628 33.34C13.1763 33.212 12.7279 33.0728 12.2832 32.9226C6.7987 31.0612 3.1891 27.9911 3.1891 24.9301C3.1891 21.9667 6.5518 19.1095 11.817 17.2865C12.4056 17.0828 13.0207 16.8914 13.6577 16.7117C13.5213 16.1696 13.3987 15.6241 13.2901 15.0759C12.1991 9.53931 12.9668 5.11471 15.5587 3.62471C18.2618 2.07081 22.7635 3.7394 27.2546 7.6996C27.534 7.9465 27.8087 8.1985 28.0787 8.4554C28.4818 8.069 28.8947 7.6927 29.317 7.3269C33.6023 3.6236 37.8454 2.0743 40.4397 3.5602C43.1457 5.1095 43.938 9.81581 42.7261 15.6579C42.6504 16.0209 42.5679 16.3824 42.4788 16.7423Z" fill="#24D8FF"/>
</svg>
