<svg width="100" height="129" viewBox="0 0 100 129" fill="none" xmlns="http://www.w3.org/2000/svg">
<path d="M38.6938 95.088C38.5435 94.234 38.2534 93.697 37.5498 93.477C38.4683 93.246 38.9194 92.698 38.9194 91.65C38.9194 90.249 37.9902 89.411 36.1909 89.411H32.6729V97.011H34.3325V93.847H34.9985C36.6152 93.847 36.8569 94.067 37.0449 95.222L37.3403 97H39.0322L38.6938 95.088ZM34.3433 90.818H36.1855C36.9053 90.818 37.2544 91.146 37.2544 91.688C37.2544 92.198 36.9375 92.569 36.2446 92.569H34.3433V90.818Z" fill="black"/>
<path d="M40.3535 97H46.1919V95.593H42.0186V93.901H45.6494V92.494H42.0186V90.818H45.9341V89.411H40.3535V97Z" fill="black"/>
<path d="M52.4009 97H54.2002L51.5576 89.411H49.3447L46.7021 97H48.5015L49.0708 95.201H51.8315L52.4009 97ZM49.4951 93.863L50.4297 90.925H50.4727L51.4072 93.863H49.4951Z" fill="black"/>
<path d="M58.0298 97.107C60.0171 97.107 61.3491 96.055 61.4941 94.003H59.8237C59.7432 95.077 59.0879 95.689 58.0298 95.689C56.73 95.689 56.0908 94.728 56.0908 93.203C56.0908 91.683 56.73 90.721 58.0298 90.721C59.0879 90.721 59.7432 91.333 59.8237 92.408H61.4941C61.3491 90.356 60.0171 89.298 58.0298 89.298C55.8008 89.298 54.4365 90.673 54.4365 93.203C54.4365 95.738 55.8008 97.107 58.0298 97.107Z" fill="black"/>
<path d="M64.0776 97H65.7427V90.812H68.02V89.411H61.811V90.812H64.0776V97Z" fill="black"/>
<path d="M64.8429 55.9379C64.571 56.0273 64.292 56.1137 64.0076 56.1974C63.3781 54.2186 62.5285 52.1144 61.4892 49.9406C62.4812 47.8183 63.2978 45.7411 63.9096 43.7751C64.4183 43.9215 64.9122 44.0756 65.388 44.2384C69.9903 45.8115 72.7975 48.1378 72.7975 49.9301C72.7975 51.8394 69.7654 54.3181 64.8429 55.9379Z" fill="#24D8FF"/>
<path d="M62.8003 59.9573C63.298 62.4539 63.3691 64.7111 63.0394 66.4757C62.7431 68.0612 62.1475 69.1183 61.4111 69.5416C59.8437 70.4426 56.4918 69.2715 52.8774 66.1826C52.4629 65.8285 52.0454 65.4503 51.6268 65.0503C53.0281 63.5282 54.4286 61.7586 55.7954 59.7936C58.1998 59.5818 60.4712 59.2354 62.5312 58.7626C62.6324 59.1691 62.7226 59.5676 62.8003 59.9573Z" fill="#24D8FF"/>
<path d="M42.144 69.386C40.6128 69.923 39.3932 69.9383 38.6561 69.5163C37.0872 68.6179 36.4353 65.1491 37.3247 60.4967C37.4305 59.9469 37.5516 59.4001 37.6879 58.857C39.7249 59.3044 41.9798 59.6264 44.3899 59.8205C45.7657 61.7433 47.2067 63.5107 48.6589 65.0584C48.3503 65.3549 48.0344 65.6438 47.7114 65.9249C45.7818 67.6 43.848 68.7882 42.144 69.386Z" fill="#24D8FF"/>
<path d="M34.9703 55.9261C32.5452 55.103 30.5425 54.0333 29.1698 52.8661C27.9363 51.8169 27.3135 50.7754 27.3135 49.9301C27.3135 48.1319 30.0134 45.838 34.5164 44.2789C35.0816 44.084 35.6524 43.9057 36.2282 43.744C36.8506 45.7543 37.6669 47.8561 38.6521 49.9815C37.6542 52.1386 36.8262 54.2739 36.198 56.3077C35.7857 56.1905 35.3763 56.0633 34.9703 55.9261Z" fill="#24D8FF"/>
<path d="M37.3751 39.6706C36.4403 34.9269 37.061 31.3486 38.6231 30.4507C40.287 29.4942 43.966 30.8581 47.8437 34.2773C48.0915 34.4959 48.3405 34.7247 48.5898 34.9614C47.1451 36.5022 45.7173 38.2562 44.3534 40.1679C42.0144 40.3832 39.7753 40.729 37.7169 41.1921C37.5901 40.6878 37.4761 40.1807 37.3751 39.6706Z" fill="#24D8FF"/>
<path d="M58.8275 44.9311C58.3414 44.0971 57.8371 43.2736 57.3152 42.4612C58.9022 42.6601 60.4224 42.9246 61.8499 43.2483C61.4214 44.6124 60.8872 46.0388 60.2582 47.5011C59.7986 46.6351 59.3216 45.7782 58.8275 44.9311Z" fill="#24D8FF"/>
<path d="M50.0792 36.4692C51.0591 37.5233 52.0406 38.7006 53.0059 39.9777C51.0477 39.8858 49.0862 39.8854 47.1279 39.9764C48.0942 38.7111 49.084 37.5356 50.0792 36.4692Z" fill="#24D8FF"/>
<path d="M41.2748 44.9455C40.7869 45.7859 40.3189 46.6375 39.871 47.4996C39.2523 46.0423 38.723 44.6096 38.2907 43.226C39.7097 42.9106 41.2229 42.6529 42.7994 42.4573C42.2717 43.2747 41.7633 44.1044 41.2748 44.9455Z" fill="#24D8FF"/>
<path d="M42.8448 57.5536C41.2161 57.3731 39.68 57.1285 38.2614 56.8218C38.7005 55.4138 39.2415 53.9502 39.8734 52.4617C40.3232 53.3244 40.7933 54.1765 41.2834 55.0173C41.7835 55.8749 42.3041 56.7206 42.8448 57.5536Z" fill="#24D8FF"/>
<path d="M50.138 63.5402C49.131 62.4611 48.1267 61.2677 47.1458 59.984C48.0979 60.0211 49.0688 60.0399 50.0555 60.0399C51.0692 60.0399 52.0714 60.0174 53.0576 59.9737C52.0892 61.2808 51.1113 62.476 50.138 63.5402Z" fill="#24D8FF"/>
<path d="M60.2784 52.3858C60.9431 53.8905 61.5035 55.3462 61.9486 56.7305C60.5065 57.0572 58.9497 57.3204 57.3093 57.5158C57.835 56.6882 58.344 55.8503 58.8361 55.0026C59.3364 54.1411 59.8173 53.2686 60.2784 52.3858Z" fill="#24D8FF"/>
<path fill-rule="evenodd" clip-rule="evenodd" d="M56.9957 53.9487C56.2423 55.2483 55.4466 56.5233 54.6098 57.7715C53.1342 57.8762 51.6094 57.9302 50.0555 57.9302C48.5079 57.9302 47.0025 57.8824 45.5527 57.789C44.6942 56.5437 43.8834 55.2665 43.1221 53.9602C42.3644 52.6609 41.6566 51.3335 41.0004 49.9809C41.655 48.6278 42.3606 47.2997 43.1157 45.9993C43.8706 44.6986 44.675 43.4273 45.5271 42.1873C47.0062 42.0763 48.5227 42.0181 50.0557 42.0181C51.5955 42.0181 53.114 42.0767 54.5926 42.1886C55.4361 43.4267 56.2353 44.694 56.9888 45.9881C57.7466 47.2856 58.4616 48.6072 59.1328 49.9509C58.4685 51.3083 57.7555 52.6417 56.9957 53.9487ZM54.4965 49.9302C54.4965 47.4946 52.5083 45.52 50.0555 45.52C47.603 45.52 45.6146 47.4946 45.6146 49.9302C45.6146 52.366 47.603 54.3406 50.0555 54.3406C52.5083 54.3406 54.4965 52.366 54.4965 49.9302Z" fill="#24D8FF"/>
<path d="M61.3785 30.3879C63.0438 31.3418 63.6915 35.1881 62.6452 40.2322C62.5766 40.5607 62.502 40.8881 62.4215 41.214C60.3583 40.7412 58.1177 40.3893 55.7719 40.1707C54.4053 38.2383 52.9894 36.4812 51.568 34.9603C51.9405 34.6037 52.3218 34.2564 52.7116 33.9186C56.3833 30.7453 59.8149 29.4924 61.3785 30.3879Z" fill="#24D8FF"/>
<path fill-rule="evenodd" clip-rule="evenodd" d="M32.6403 60.2407C26.1297 58.0307 22 54.1101 22 49.9101C22 45.8243 26.3494 42.1948 32.6403 40.0167C31.336 33.3967 32.3561 28.0623 35.9314 26.0071C39.6395 23.8755 44.7513 25.3105 50.0821 30.0107C55.206 25.5824 60.3689 23.7962 63.9475 25.8455C67.6595 27.9712 68.8782 33.083 67.4398 40.0628C73.8628 42.2586 78 45.8077 78 49.9101C78 54.1654 74.2068 57.5085 67.4255 59.7349C68.7615 66.4378 67.6485 72.032 63.9882 74.1362C60.427 76.1834 55.3236 74.4851 50.2738 70.1695C45.0933 74.6667 39.6353 76.1191 35.9717 74.0208C32.4074 71.9795 31.3402 66.7405 32.6403 60.2407ZM64.4788 41.7423C65.0166 41.8959 65.5504 42.0629 66.0798 42.2433C71.4511 44.0795 74.9221 46.956 74.9221 49.9301C74.9221 53.0319 71.2127 56.0647 65.5112 57.9405C65.2099 58.0397 64.9011 58.135 64.5864 58.2273C64.6986 58.6758 64.7988 59.1162 64.8846 59.5475C66.0102 65.1935 65.1435 69.8341 62.4758 71.3676C59.893 72.8524 55.7185 71.3938 51.4917 67.7819C51.0323 67.3883 50.584 66.9821 50.1474 66.5637C49.8007 66.8966 49.4545 67.2142 49.1096 67.5137C44.7459 71.3016 40.2646 72.8731 37.5946 71.3442C35.0095 69.8634 34.1971 65.5436 35.2373 60.1033C35.351 59.5121 35.4813 58.9241 35.628 58.34C35.1763 58.212 34.7279 58.0728 34.2832 57.9226C28.7987 56.0612 25.1891 52.9911 25.1891 49.9301C25.1891 46.9667 28.5518 44.1095 33.817 42.2865C34.4056 42.0828 35.0207 41.8914 35.6577 41.7117C35.5213 41.1696 35.3987 40.6241 35.2901 40.0759C34.1991 34.5393 34.9668 30.1147 37.5587 28.6247C40.2618 27.0708 44.7635 28.7394 49.2546 32.6996C49.534 32.9465 49.8087 33.1985 50.0787 33.4554C50.4818 33.069 50.8947 32.6927 51.317 32.3269C55.6023 28.6236 59.8454 27.0743 62.4397 28.5602C65.1457 30.1095 65.938 34.8158 64.7261 40.6579C64.6504 41.0209 64.5679 41.3824 64.4788 41.7423Z" fill="#24D8FF"/>
</svg>
